<?xml version="1.0" encoding="utf-8"?>
<!-- Generator: Adobe Illustrator 16.0.0, SVG Export Plug-In . SVG Version: 6.00 Build 0)  -->
<!DOCTYPE svg PUBLIC "-//W3C//DTD SVG 1.1//EN" "http://www.w3.org/Graphics/SVG/1.1/DTD/svg11.dtd">
<svg version="1.1" id="Layer_1" xmlns="http://www.w3.org/2000/svg" xmlns:xlink="http://www.w3.org/1999/xlink" x="0px" y="0px"
	 width="64px" height="64px" viewBox="0 0 64 64" enable-background="new 0 0 64 64" xml:space="preserve">
<g>
	<circle fill="#DDDDDD" cx="32" cy="32" r="32"/>
	<path fill="#222222" d="M41.828,19.749H22.376c-1.472,0-2.664,1.193-2.664,2.665v19.452c0,1.472,1.192,2.665,2.664,2.665h19.452
		c1.473,0,2.666-1.193,2.666-2.665V22.414C44.494,20.942,43.301,19.749,41.828,19.749z M27.603,29.758
		c0.104-0.201,0.223-0.394,0.352-0.577c0.004-0.005,0.006-0.01,0.01-0.014c0.094-0.132,0.193-0.259,0.299-0.381
		c0.006-0.008,0.014-0.017,0.021-0.024c0.102-0.116,0.208-0.229,0.32-0.335c0.011-0.011,0.022-0.021,0.034-0.032
		c0.034-0.032,0.069-0.064,0.105-0.096c0.012-0.012,0.026-0.023,0.039-0.034c0.063-0.055,0.126-0.106,0.189-0.157
		c0.018-0.014,0.035-0.027,0.053-0.041c0.033-0.025,0.067-0.051,0.102-0.075c0.022-0.017,0.046-0.033,0.069-0.049
		c0.042-0.03,0.084-0.059,0.126-0.087c0.04-0.026,0.08-0.052,0.121-0.077c0.03-0.019,0.061-0.036,0.092-0.055
		c0.031-0.018,0.063-0.036,0.095-0.054c0.029-0.018,0.059-0.033,0.089-0.05c0.055-0.029,0.111-0.059,0.168-0.086
		c0.024-0.012,0.049-0.023,0.074-0.034c0.041-0.02,0.083-0.039,0.125-0.057c0.027-0.012,0.053-0.023,0.08-0.035
		c0.053-0.021,0.104-0.041,0.156-0.061c0.021-0.009,0.043-0.017,0.064-0.024c0.059-0.021,0.117-0.041,0.177-0.06
		c0.023-0.008,0.048-0.015,0.071-0.022c0.054-0.016,0.107-0.031,0.16-0.045c0.019-0.005,0.036-0.01,0.055-0.015
		c0.069-0.018,0.14-0.034,0.211-0.049c0.02-0.004,0.04-0.008,0.061-0.012c0.057-0.012,0.113-0.022,0.172-0.031
		c0.02-0.003,0.039-0.006,0.059-0.009c0.074-0.012,0.148-0.021,0.223-0.029c0.014-0.001,0.027-0.002,0.041-0.003
		c0.064-0.007,0.128-0.011,0.191-0.015c0.021-0.001,0.043-0.002,0.064-0.004c0.076-0.003,0.154-0.005,0.232-0.005
		c0.077,0,0.155,0.002,0.233,0.005c0.021,0.002,0.041,0.003,0.063,0.004c0.064,0.004,0.129,0.008,0.191,0.015
		c0.014,0.001,0.027,0.002,0.041,0.003c0.076,0.008,0.148,0.018,0.223,0.029c0.02,0.003,0.041,0.006,0.061,0.009
		c0.057,0.009,0.114,0.02,0.172,0.031c0.02,0.004,0.039,0.008,0.061,0.012c0.07,0.015,0.141,0.031,0.211,0.049
		c0.018,0.005,0.035,0.01,0.053,0.015c0.055,0.014,0.107,0.029,0.16,0.045c0.023,0.008,0.049,0.015,0.072,0.022
		c0.059,0.019,0.117,0.039,0.176,0.06c0.021,0.008,0.043,0.016,0.064,0.024c0.053,0.02,0.105,0.04,0.156,0.061
		c0.027,0.012,0.055,0.023,0.08,0.035c0.043,0.018,0.084,0.037,0.127,0.056c0.023,0.012,0.049,0.023,0.072,0.035
		c0.057,0.027,0.113,0.057,0.17,0.086c0.029,0.017,0.059,0.032,0.088,0.05c0.031,0.018,0.064,0.036,0.096,0.054
		c0.029,0.019,0.061,0.036,0.092,0.055c0.039,0.025,0.08,0.051,0.119,0.077c0.043,0.028,0.086,0.057,0.127,0.087
		c0.023,0.016,0.047,0.032,0.07,0.049c0.033,0.024,0.066,0.05,0.1,0.075c0.018,0.014,0.035,0.027,0.053,0.041
		c0.064,0.051,0.127,0.103,0.189,0.157c0.014,0.011,0.027,0.022,0.041,0.034c0.035,0.031,0.07,0.063,0.104,0.096
		c0.012,0.011,0.023,0.021,0.035,0.032c0.111,0.106,0.219,0.219,0.32,0.335c0.008,0.008,0.014,0.017,0.021,0.024
		c0.105,0.122,0.205,0.249,0.297,0.381c0.004,0.004,0.008,0.009,0.01,0.014c0.131,0.184,0.248,0.376,0.352,0.577
		c0.365,0.699,0.572,1.495,0.572,2.338c0,2.801-2.271,5.071-5.071,5.071c-2.801,0-5.071-2.271-5.071-5.071
		C27.031,31.253,27.238,30.457,27.603,29.758z M41.627,40.077c0,0.877-0.711,1.588-1.588,1.588H24.165
		c-0.877,0-1.588-0.711-1.588-1.588V29.759h2.169c-0.234,0.737-0.36,1.522-0.36,2.337c0,4.262,3.455,7.717,7.717,7.717
		c4.263,0,7.718-3.455,7.718-7.717c0-0.814-0.127-1.6-0.361-2.337h2.168V40.077z M41.672,25.777c0,0.689-0.559,1.248-1.248,1.248
		H38.42c-0.688,0-1.246-0.559-1.246-1.248v-2.003c0-0.688,0.559-1.247,1.246-1.247h2.004c0.689,0,1.248,0.559,1.248,1.247V25.777z"
		/>
</g>
</svg>
