<?xml version="1.0" encoding="utf-8"?>
<!-- Generator: Adobe Illustrator 16.0.0, SVG Export Plug-In . SVG Version: 6.00 Build 0)  -->
<!DOCTYPE svg PUBLIC "-//W3C//DTD SVG 1.1//EN" "http://www.w3.org/Graphics/SVG/1.1/DTD/svg11.dtd">
<svg version="1.1" xmlns="http://www.w3.org/2000/svg" xmlns:xlink="http://www.w3.org/1999/xlink" x="0px" y="0px" width="64px"
	 height="64px" viewBox="0 0 64 64" enable-background="new 0 0 64 64" xml:space="preserve">
<g id="Layer_2">
</g>
<g id="Layer_1">
	<g>
		<circle fill="#DEDDDD" cx="32" cy="32" r="32"/>
		<path fill="#222222" d="M19.496,21.268c0,0,4.459,5.911,12.211,6.32c0,0-1.051-3.491,2.168-6.162
			c3.219-2.674,7.199-0.41,7.963,0.599c0,0,2.264-0.354,3.845-1.417c0,0-0.517,2.041-2.427,3.27c0,0,2.236-0.298,3.272-0.898
			c0,0-1.091,1.745-2.972,3.081c0,0,0.79,7.377-5.551,13.473c-6.34,6.096-16.772,4.826-20.535,1.636c0,0,5.113,0.573,8.712-2.495
			c0,0-4.254-0.082-5.48-4.051c0,0,2.126,0.164,2.495-0.244c0,0-4.582-1.105-4.623-5.892c0,0,1.391,0.696,2.658,0.737
			C21.234,29.224,16.816,26.033,19.496,21.268z"/>
	</g>
</g>
</svg>
