<?xml version="1.0" encoding="utf-8"?>
<!-- Generator: Adobe Illustrator 16.0.0, SVG Export Plug-In . SVG Version: 6.00 Build 0)  -->
<!DOCTYPE svg PUBLIC "-//W3C//DTD SVG 1.1//EN" "http://www.w3.org/Graphics/SVG/1.1/DTD/svg11.dtd">
<svg version="1.1" id="Layer_1" xmlns="http://www.w3.org/2000/svg" xmlns:xlink="http://www.w3.org/1999/xlink" x="0px" y="0px"
	 width="20px" height="20px" viewBox="0 0 20 20" enable-background="new 0 0 20 20" xml:space="preserve">
<ellipse fill="#ABEBFF" cx="10.13" cy="13.146" rx="6.548" ry="6.548"/>
<path fill="#00E5D4" d="M10.13,10.94c2.054,0,3.966-0.454,5.571-1.236c-1.154-1.865-3.218-3.107-5.571-3.107
	c-2.354,0-4.417,1.242-5.571,3.107C6.164,10.486,8.076,10.94,10.13,10.94z"/>
<ellipse fill="#5AC8FF" cx="10.13" cy="13.146" rx="4.71" ry="6.548"/>
<path fill="#00E5D4" d="M10.13,15.352c-2.054,0-3.966,0.453-5.571,1.235c1.154,1.864,3.217,3.106,5.571,3.106
	c2.354,0,4.417-1.242,5.571-3.106C14.096,15.805,12.184,15.352,10.13,15.352z"/>
<path opacity="0.1" enable-background="new    " d="M5.252,10.014c-0.237-0.097-0.468-0.2-0.693-0.309l0,0
	c-0.619,1-0.977,2.178-0.977,3.442c0,1.262,0.357,2.44,0.977,3.44c0.225-0.109,0.457-0.212,0.693-0.31
	c-0.508-0.93-0.796-1.997-0.796-3.131C4.456,12.012,4.745,10.943,5.252,10.014z"/>
<ellipse fill="#ABEBFF" cx="10.13" cy="13.146" rx="2.278" ry="6.548"/>
<path fill="#E81A47" d="M11.465,14.039c-0.027-0.051-0.072-0.089-0.125-0.109c-1.048-0.416-1.753-1.474-1.753-2.633
	c0-1.555,1.224-2.82,2.727-2.82s2.727,1.265,2.727,2.82c0,1.159-0.704,2.217-1.753,2.633c-0.053,0.021-0.097,0.059-0.125,0.109
	l-0.849,1.516L11.465,14.039z M12.313,10.068c-0.66,0-1.197,0.551-1.197,1.229c0,0.677,0.537,1.229,1.197,1.229
	c0.661,0,1.198-0.551,1.198-1.229S12.975,10.068,12.313,10.068z"/>
<g opacity="0.1">
	<path d="M12.123,13.383c-0.028-0.051-0.072-0.089-0.125-0.109c-1.049-0.416-1.753-1.474-1.753-2.634
		c0-0.625,0.198-1.203,0.533-1.671c-0.718,0.508-1.19,1.362-1.19,2.328c0,1.159,0.705,2.217,1.753,2.633
		c0.053,0.021,0.098,0.059,0.125,0.109l0.849,1.516l0.513-0.916L12.123,13.383z"/>
</g>
<path fill="#E81A47" d="M9.291,4.629C9.269,4.59,9.235,4.56,9.194,4.544C8.379,4.221,7.832,3.399,7.832,2.497
	c0-1.208,0.951-2.191,2.119-2.191s2.12,0.983,2.12,2.191c0,0.902-0.548,1.724-1.363,2.047C10.666,4.56,10.633,4.59,10.61,4.629
	l-0.66,1.178L9.291,4.629z M9.951,1.542c-0.513,0-0.931,0.428-0.931,0.955c0,0.527,0.417,0.955,0.931,0.955s0.93-0.428,0.93-0.955
	C10.881,1.971,10.464,1.542,9.951,1.542z"/>
<path fill="#E81A47" d="M3.552,7.039C3.535,7.008,3.507,6.984,3.474,6.971C2.823,6.713,2.385,6.055,2.385,5.334
	c0-0.966,0.76-1.752,1.695-1.752c0.935,0,1.695,0.786,1.695,1.752c0,0.721-0.438,1.379-1.09,1.637
	C4.652,6.984,4.625,7.008,4.608,7.039L4.08,7.981L3.552,7.039z M4.08,4.57c-0.411,0-0.745,0.343-0.745,0.764
	c0,0.421,0.334,0.764,0.745,0.764s0.745-0.343,0.745-0.764C4.825,4.913,4.491,4.57,4.08,4.57z"/>
<path fill="#5AC8FF" d="M12.313,10.068c-0.66,0-1.197,0.551-1.197,1.229c0,0.677,0.537,1.229,1.197,1.229
	c0.661,0,1.198-0.551,1.198-1.229S12.975,10.068,12.313,10.068z"/>
<path fill="#E81A47" d="M15.393,7.039c-0.018-0.031-0.045-0.055-0.078-0.068c-0.652-0.258-1.09-0.916-1.09-1.637
	c0-0.966,0.761-1.752,1.695-1.752c0.936,0,1.695,0.786,1.695,1.752c0,0.721-0.438,1.379-1.09,1.637
	c-0.033,0.013-0.061,0.037-0.078,0.068L15.92,7.981L15.393,7.039z M15.92,4.57c-0.41,0-0.744,0.343-0.744,0.764
	c0,0.421,0.334,0.764,0.744,0.764s0.744-0.343,0.744-0.764C16.664,4.913,16.33,4.57,15.92,4.57z"/>
<path d="M3.276,13.146c0,3.78,3.074,6.854,6.854,6.854c2.891,0,5.485-1.828,6.456-4.551c0.058-0.158-0.025-0.334-0.186-0.391
	c-0.158-0.057-0.334,0.026-0.391,0.186c-0.118,0.331-0.263,0.647-0.431,0.947c-0.272-0.125-0.552-0.238-0.835-0.344
	c0.234-0.751,0.37-1.561,0.396-2.396h1.223c-0.012,0.236-0.035,0.473-0.073,0.703c-0.027,0.168,0.086,0.324,0.253,0.352
	s0.324-0.086,0.352-0.252c0.059-0.364,0.089-0.736,0.089-1.107c0-3.78-3.075-6.855-6.854-6.855
	C6.351,6.292,3.276,9.366,3.276,13.146z M4.683,10.101c0.271,0.124,0.549,0.238,0.833,0.342c-0.235,0.752-0.371,1.561-0.397,2.396
	H3.896C3.944,11.85,4.224,10.918,4.683,10.101z M3.896,13.451h1.223c0.027,0.836,0.162,1.645,0.397,2.396
	c-0.284,0.104-0.562,0.219-0.833,0.343C4.224,15.373,3.944,14.442,3.896,13.451z M5.011,16.713c0.232-0.104,0.468-0.199,0.709-0.288
	c0.221,0.554,0.499,1.069,0.83,1.53c0.164,0.229,0.338,0.438,0.521,0.631C6.252,18.123,5.548,17.48,5.011,16.713z M5.731,13.451
	h1.817c0.01,0.625,0.049,1.233,0.117,1.813c-0.536,0.097-1.06,0.226-1.569,0.386C5.886,14.971,5.758,14.23,5.731,13.451z
	 M6.301,16.227c0.469-0.146,0.953-0.264,1.446-0.354c0.115,0.736,0.277,1.415,0.482,2.005c0.181,0.52,0.375,0.918,0.573,1.221
	C7.737,18.619,6.846,17.581,6.301,16.227z M9.681,12.84H8.161c0.01-0.592,0.047-1.168,0.109-1.718
	c0.335,0.045,0.673,0.077,1.013,0.098c0,0.026-0.002,0.051-0.002,0.077C9.281,11.848,9.425,12.377,9.681,12.84z M9.824,13.451v1.598
	C9.3,15.061,8.781,15.101,8.27,15.17c-0.063-0.55-0.1-1.127-0.109-1.719H9.824L9.824,13.451z M10.436,19.295v-0.928
	c0-0.169-0.137-0.307-0.306-0.307s-0.306,0.138-0.306,0.307v0.928c-0.361-0.212-0.725-0.785-1.016-1.619
	c-0.193-0.557-0.347-1.2-0.456-1.9c0.484-0.064,0.976-0.104,1.472-0.114v1.44c0,0.17,0.137,0.307,0.306,0.307
	s0.306-0.137,0.306-0.307v-1.44c0.496,0.011,0.988,0.05,1.471,0.114c-0.108,0.7-0.263,1.344-0.456,1.9
	C11.16,18.51,10.797,19.082,10.436,19.295z M10.436,15.049v-1.301c0.23,0.188,0.49,0.344,0.771,0.459l0.521,0.93
	C11.303,15.088,10.871,15.059,10.436,15.049z M11.457,19.098c0.197-0.303,0.392-0.701,0.572-1.221
	c0.205-0.59,0.367-1.269,0.482-2.005c0.494,0.091,0.977,0.209,1.447,0.354C13.414,17.581,12.522,18.619,11.457,19.098z
	 M12.805,15.305l0.615-1.098c0.418-0.17,0.785-0.431,1.084-0.756h0.024c-0.026,0.779-0.154,1.52-0.364,2.199
	C13.721,15.512,13.268,15.396,12.805,15.305z M15.251,16.715c-0.54,0.773-1.248,1.41-2.062,1.869
	c0.182-0.192,0.355-0.402,0.52-0.629c0.332-0.461,0.609-0.977,0.83-1.53C14.781,16.514,15.018,16.61,15.251,16.715z M16.363,12.84
	h-1.223c-0.004-0.125-0.01-0.248-0.02-0.371c0.146-0.367,0.225-0.764,0.225-1.172c0-0.359-0.059-0.703-0.167-1.023
	c0.134-0.055,0.267-0.113,0.397-0.172C16.035,10.918,16.315,11.85,16.363,12.84z M15.248,9.577c-0.105,0.047-0.213,0.093-0.32,0.138
	c-0.248-0.435-0.596-0.802-1.01-1.069c-0.068-0.105-0.137-0.208-0.209-0.309c-0.164-0.229-0.338-0.438-0.521-0.631
	C14.007,8.168,14.711,8.81,15.248,9.577z M12.829,8.217c-0.168-0.03-0.34-0.046-0.516-0.046c-0.124,0-0.245,0.008-0.364,0.023
	c-0.158-0.414-0.324-0.742-0.492-1.001C11.959,7.419,12.422,7.769,12.829,8.217z M10.436,6.996c0.32,0.188,0.64,0.657,0.911,1.339
	c-0.333,0.116-0.64,0.29-0.911,0.51V6.996z M12.313,8.784c1.335,0,2.421,1.127,2.421,2.513c0,1.035-0.627,1.979-1.56,2.348
	c-0.118,0.047-0.218,0.133-0.279,0.244l-0.582,1.039l-0.581-1.039c0,0,0,0-0.001,0c-0.062-0.111-0.161-0.197-0.279-0.244
	c-0.933-0.369-1.559-1.313-1.559-2.348C9.893,9.911,10.979,8.784,12.313,8.784z M9.824,6.996v2.52
	c-0.22,0.326-0.381,0.696-0.469,1.096c-0.337-0.02-0.671-0.051-1.003-0.096c0.109-0.7,0.263-1.343,0.456-1.899
	C9.099,7.781,9.462,7.208,9.824,6.996z M8.803,7.194C8.605,7.497,8.411,7.895,8.23,8.415c-0.205,0.589-0.367,1.268-0.482,2.004
	c-0.06-0.011-0.119-0.021-0.178-0.033c-0.166-0.033-0.327,0.075-0.36,0.241c-0.033,0.166,0.075,0.326,0.241,0.359
	c0.071,0.015,0.143,0.027,0.215,0.041c-0.068,0.58-0.107,1.188-0.117,1.813H5.731c0.027-0.779,0.155-1.52,0.365-2.198
	c0.103,0.032,0.206,0.063,0.31,0.093c0.028,0.008,0.056,0.012,0.084,0.012c0.133,0,0.256-0.088,0.294-0.222
	c0.046-0.163-0.048-0.332-0.21-0.378c-0.091-0.026-0.182-0.054-0.272-0.082C6.846,8.71,7.737,7.672,8.803,7.194z M7.071,7.707
	c-0.182,0.192-0.356,0.402-0.521,0.63c-0.332,0.461-0.609,0.976-0.83,1.53C5.479,9.777,5.243,9.681,5.012,9.578
	C5.548,8.81,6.253,8.168,7.071,7.707z"/>
<path d="M12.313,12.831c0.183,0,0.362-0.033,0.532-0.099c0.157-0.062,0.235-0.238,0.174-0.396c-0.061-0.157-0.237-0.236-0.395-0.175
	c-0.1,0.038-0.205,0.058-0.312,0.058c-0.491,0-0.892-0.414-0.892-0.922c0-0.51,0.4-0.923,0.892-0.923s0.892,0.414,0.892,0.923
	c0,0.086-0.012,0.172-0.035,0.254c-0.045,0.162,0.051,0.332,0.214,0.377s0.331-0.051,0.376-0.213
	c0.039-0.136,0.058-0.277,0.058-0.418c0-0.847-0.675-1.535-1.504-1.535s-1.503,0.688-1.503,1.535
	C10.811,12.143,11.484,12.831,12.313,12.831z"/>
<path d="M11.188,2.497c0-0.169-0.137-0.306-0.307-0.306c-0.168,0-0.306,0.137-0.306,0.306c0,0.358-0.28,0.649-0.625,0.649
	c-0.344,0-0.625-0.291-0.625-0.649c0-0.357,0.28-0.648,0.625-0.648c0.117,0,0.232,0.034,0.331,0.099
	C10.423,2.04,10.613,2,10.705,1.858s0.053-0.331-0.09-0.423c-0.198-0.13-0.428-0.198-0.665-0.198c-0.682,0-1.237,0.565-1.237,1.261
	c0,0.696,0.555,1.261,1.237,1.261S11.188,3.193,11.188,2.497z"/>
<path d="M9.684,5.957C9.738,6.053,9.84,6.113,9.951,6.113s0.213-0.06,0.267-0.157l0.64-1.144c0.91-0.378,1.52-1.304,1.52-2.316
	C12.377,1.12,11.288,0,9.951,0S7.525,1.12,7.525,2.497c0,1.012,0.608,1.938,1.518,2.316L9.684,5.957z M8.137,2.497
	c0-1.039,0.813-1.885,1.813-1.885c1,0,1.813,0.846,1.813,1.885c0,0.777-0.469,1.485-1.168,1.762c-0.106,0.042-0.196,0.12-0.252,0.22
	L9.951,5.181L9.558,4.479c0,0,0,0,0,0c-0.056-0.1-0.146-0.178-0.251-0.219C8.607,3.982,8.137,3.274,8.137,2.497z"/>
<path d="M4.08,3.275c-1.104,0-2.001,0.923-2.001,2.059c0,0.827,0.493,1.583,1.232,1.901l0.502,0.896
	C3.867,8.228,3.969,8.288,4.08,8.288s0.213-0.06,0.267-0.156l0.502-0.896c0.739-0.317,1.232-1.074,1.232-1.901
	C6.082,4.199,5.184,3.275,4.08,3.275z M4.573,6.687C4.475,6.725,4.393,6.797,4.341,6.89L4.08,7.355L3.819,6.889
	C3.767,6.797,3.685,6.725,3.587,6.687C3.051,6.474,2.691,5.931,2.691,5.334c0-0.797,0.623-1.447,1.389-1.447
	s1.389,0.649,1.389,1.447C5.469,5.931,5.109,6.474,4.573,6.687z"/>
<path d="M4.08,4.264c-0.58,0-1.051,0.48-1.051,1.07c0,0.59,0.471,1.07,1.051,1.07c0.579,0,1.05-0.48,1.05-1.07
	C5.13,4.744,4.659,4.264,4.08,4.264z M4.08,5.792c-0.242,0-0.438-0.206-0.438-0.458S3.838,4.876,4.08,4.876s0.438,0.205,0.438,0.458
	S4.322,5.792,4.08,5.792z"/>
<path d="M15.652,8.131c0.055,0.097,0.156,0.156,0.268,0.156s0.213-0.06,0.268-0.156l0.502-0.896
	c0.738-0.317,1.232-1.074,1.232-1.901c0-1.135-0.898-2.059-2.002-2.059s-2.002,0.923-2.002,2.059c0,0.827,0.494,1.583,1.232,1.901
	L15.652,8.131z M14.531,5.334c0-0.797,0.623-1.446,1.389-1.446s1.389,0.649,1.389,1.446c0,0.597-0.359,1.14-0.896,1.353
	c-0.099,0.039-0.181,0.111-0.232,0.203L15.92,7.355l-0.262-0.466c-0.051-0.092-0.133-0.164-0.23-0.202
	C14.891,6.475,14.531,5.931,14.531,5.334z"/>
<path d="M16.971,5.334c0-0.59-0.471-1.07-1.051-1.07c-0.579,0-1.051,0.48-1.051,1.07c0,0.59,0.472,1.07,1.051,1.07
	C16.5,6.404,16.971,5.924,16.971,5.334z M15.481,5.334c0-0.252,0.196-0.458,0.438-0.458s0.438,0.205,0.438,0.458
	s-0.196,0.458-0.438,0.458S15.481,5.586,15.481,5.334z"/>
</svg>
