<?xml version="1.0" encoding="utf-8"?>
<!-- Generator: Adobe Illustrator 16.0.0, SVG Export Plug-In . SVG Version: 6.00 Build 0)  -->
<!DOCTYPE svg PUBLIC "-//W3C//DTD SVG 1.1//EN" "http://www.w3.org/Graphics/SVG/1.1/DTD/svg11.dtd">
<svg version="1.1" id="Layer_1" xmlns="http://www.w3.org/2000/svg" xmlns:xlink="http://www.w3.org/1999/xlink" x="0px" y="0px"
	 width="50px" height="58.437px" viewBox="0 0 50 58.437" enable-background="new 0 0 50 58.437" xml:space="preserve">
<g>
	<g>
		<g>
			<g>
				<rect x="16.705" y="48.375" fill="#3C3C3B" width="7.136" height="7.729"/>
			</g>
		</g>
		<g>
			<g>
				<rect x="27.238" y="48.375" fill="#6F6F6E" width="7.138" height="7.729"/>
			</g>
		</g>
		<g>
			<g>
				<path fill="#F5C799" d="M20.273,53.406c-2.779,0-5.031,2.252-5.031,5.031h10.061C25.303,55.658,23.051,53.406,20.273,53.406z"/>
			</g>
		</g>
		<g>
			<g>
				<path fill="#F5C799" d="M30.807,53.406c-2.779,0-5.032,2.252-5.032,5.031h10.064C35.839,55.658,33.586,53.406,30.807,53.406z"/>
			</g>
		</g>
	</g>
	<g>
		<g>
			<g>
				<path fill="#3C3C3B" d="M14.184,37.126c-0.371,1.142-0.578,2.357-0.578,3.622c0,6.461,5.238,11.697,11.697,11.697V42.66
					C20.604,42.66,16.497,40.444,14.184,37.126z"/>
			</g>
		</g>
		<g>
			<g>
				<path fill="#6F6F6E" d="M25.303,42.66v9.786c6.46,0,11.699-5.236,11.699-11.697c0-1.265-0.208-2.48-0.578-3.622
					C34.111,40.444,30.003,42.66,25.303,42.66z"/>
			</g>
		</g>
		<g>
			<g>
				<path fill="#3C3C3B" d="M25.303,29.051c-5.194,0-9.593,3.388-11.119,8.075c2.313,3.317,6.419,5.533,11.119,5.533
					s8.808-2.216,11.121-5.533C34.896,32.439,30.499,29.051,25.303,29.051z"/>
			</g>
		</g>
	</g>
	<g>
		<g>
			<g>
				<g>
					<g>
						<circle fill="#3C3C3B" cx="6.198" cy="20.066" r="6.198"/>
					</g>
				</g>
				<g>
					<g>
						<circle fill="#D76C79" cx="6.197" cy="20.066" r="4.039"/>
					</g>
				</g>
			</g>
			<g>
				<g>
					<g>
						<circle fill="#6F6F6E" cx="43.802" cy="20.066" r="6.198"/>
					</g>
				</g>
				<g>
					<g>
						<circle fill="#D76C79" cx="43.801" cy="20.066" r="4.04"/>
					</g>
				</g>
			</g>
		</g>
		<g>
			<g>
				<g>
					<path fill="#3C3C3B" d="M6.04,19.264c0,10.638,8.625,19.264,19.264,19.264V0C14.665,0,6.04,8.625,6.04,19.264z"/>
				</g>
			</g>
			<g>
				<g>
					<path fill="#6F6F6E" d="M44.567,19.264C44.567,8.625,35.943,0,25.303,0v38.528C35.943,38.528,44.567,29.902,44.567,19.264z"/>
				</g>
			</g>
		</g>
		<g>
			<g>
				<g>
					<path fill="#F5C799" d="M39.393,20.254c0-3.954-3.206-7.159-7.161-7.159c-3.339,0-6.136,2.291-6.929,5.384
						c-0.79-3.094-3.587-5.384-6.928-5.384c-3.954,0-7.16,3.206-7.16,7.159c0,3.955,3.206,7.16,7.16,7.16v3.694
						c0,3.955,3.205,7.16,7.16,7.16c3.953,0,7.159-3.205,7.159-7.16v-3.717C36.432,27.151,39.393,24.053,39.393,20.254z"/>
				</g>
			</g>
			<g>
				<g>
					<g>
						<circle fill="#411611" cx="23.457" cy="27.298" r="1.038"/>
					</g>
				</g>
				<g>
					<g>
						<circle fill="#411611" cx="27.151" cy="27.298" r="1.039"/>
					</g>
				</g>
			</g>
			<g>
				<g>
					<g>
						<g>
							<circle fill="#411611" cx="18.173" cy="20.948" r="2.568"/>
						</g>
					</g>
				</g>
				<g>
					<g>
						<g>
							<circle fill="#411611" cx="32.435" cy="20.948" r="2.569"/>
						</g>
					</g>
				</g>
				<g>
					<g>
						<circle fill="#FFFFFF" cx="19.041" cy="20.091" r="0.856"/>
					</g>
				</g>
				<g>
					<g>
						<circle fill="#FFFFFF" cx="33.29" cy="20.091" r="0.856"/>
					</g>
				</g>
			</g>
			<g>
				<g>
					<g>
						<g>
							<path fill="#411611" d="M25.303,35.989c-2.607,0-3.646-1.467-3.688-1.528c-0.075-0.108-0.048-0.257,0.06-0.332
								c0.109-0.074,0.257-0.046,0.331,0.062c0.042,0.059,0.959,1.324,3.297,1.324c2.146,0,3.302-1.33,3.313-1.344
								c0.085-0.1,0.236-0.111,0.336-0.027c0.099,0.087,0.111,0.236,0.026,0.336C28.926,34.541,27.668,35.989,25.303,35.989z"/>
						</g>
					</g>
				</g>
			</g>
		</g>
	</g>
	<g>
		<g>
			<g>
				<path fill="#F5C799" d="M30.98,47.643c-1.616,0-2.926-1.311-2.926-2.926c0-1.614,1.31-2.925,2.926-2.925"/>
			</g>
		</g>
		<g>
			<g>
				<path fill="#F5C799" d="M19.628,47.643c1.615,0,2.924-1.311,2.924-2.926c0-1.614-1.309-2.925-2.924-2.925"/>
			</g>
		</g>
	</g>
	<g>
		<g>
			<g>
				<path fill="#3C3C3B" d="M16.891,41.543c-0.923,0-1.67,0.749-1.67,1.671c0,2.822-2.297,5.12-5.12,5.12
					c-2.823,0-5.118-2.298-5.118-5.12c0-1.908,1.053-3.574,2.606-4.456c-1.38-1.021-1.151-2.644-1.009-3.227
					c-2.91,1.338-4.94,4.274-4.94,7.683c0,4.665,3.795,8.463,8.46,8.463c4.665,0,8.461-3.798,8.461-8.463
					C18.563,42.292,17.814,41.543,16.891,41.543z"/>
			</g>
		</g>
		<g>
			<g>
				<path fill="#F5C799" d="M7.59,38.758c0.743-0.421,1.598-0.661,2.512-0.661c0.923,0,1.671-0.749,1.671-1.673
					c0-0.922-0.749-1.671-1.671-1.671c-1.257,0-2.447,0.283-3.521,0.778C6.439,36.115,6.209,37.737,7.59,38.758z"/>
			</g>
		</g>
	</g>
</g>
</svg>
