<?xml version="1.0" encoding="utf-8"?>
<!-- Generator: Adobe Illustrator 16.0.0, SVG Export Plug-In . SVG Version: 6.00 Build 0)  -->
<!DOCTYPE svg PUBLIC "-//W3C//DTD SVG 1.1//EN" "http://www.w3.org/Graphics/SVG/1.1/DTD/svg11.dtd">
<svg version="1.1" id="Layer_1" xmlns="http://www.w3.org/2000/svg" xmlns:xlink="http://www.w3.org/1999/xlink" x="0px" y="0px"
	 width="50px" height="45.67px" viewBox="0 0 50 45.67" enable-background="new 0 0 50 45.67" xml:space="preserve">
<g>
	<g>
		<g>
			<path fill="#AEAED3" d="M20.648,22.148c1.124-1.514,3.192-1.715,4.417-1.687V0.001C25.043,0.001,25.021,0,24.999,0
				C16.33,0,9.302,7.027,9.302,15.698c0,0.767,0.057,1.518,0.162,2.256c-0.864,1.192-1.343,2.503-1.343,3.883
				c0,2.789,1.962,5.307,5.119,7.108v-0.001c1.142,0.651,2.44,1.209,3.858,1.652c0.032,0.01,0.065,0.021,0.097,0.03
				c0.531,0.163,1.079,0.31,1.641,0.439c0.063,0.015,0.125,0.028,0.188,0.042c0.275,0.063,0.555,0.12,0.837,0.174
				C18.154,26.01,18.986,24.387,20.648,22.148z"/>
		</g>
	</g>
	<g>
		<g>
			<path fill="#C6CCD6" d="M37.78,32.45c-0.057,0.049-0.103,0.109-0.142,0.172c-0.227,0.248-0.749,0.712-1.684,1.056
				c-0.009,0.003-0.018,0.006-0.026,0.009c-0.109,0.04-0.225,0.077-0.344,0.113c-0.029,0.008-0.058,0.016-0.087,0.024
				c-0.104,0.029-0.211,0.057-0.325,0.082c-0.044,0.011-0.088,0.021-0.134,0.03c-0.104,0.021-0.21,0.04-0.32,0.058
				c-0.058,0.01-0.115,0.019-0.174,0.027c-0.105,0.015-0.216,0.027-0.329,0.038c-0.068,0.008-0.135,0.015-0.205,0.021
				c-0.114,0.009-0.234,0.013-0.354,0.018c-0.074,0.003-0.146,0.008-0.223,0.009c-0.132,0.002-0.271-0.001-0.411-0.004
				c-0.071-0.002-0.138-0.001-0.21-0.003c-0.216-0.009-0.438-0.023-0.671-0.046c-1.673-0.161-2.408-1.311-2.685-2.654
				c0.315-0.051,0.625-0.108,0.933-0.169c0.06-0.012,0.12-0.023,0.179-0.036c2.343-0.48,4.447-1.26,6.19-2.255
				c0.001,0.001,0.001,0.003,0.001,0.005c3.157-1.801,5.121-4.318,5.121-7.107c0-1.379-0.48-2.691-1.346-3.883
				c0.107-0.739,0.164-1.49,0.164-2.256c0-8.647-6.993-15.661-15.632-15.697V20.11c-1.225-0.028-3.683,0.295-4.807,1.808
				c-1.662,2.239-1.875,4.506-0.397,9.364c0.627,2.626,2.117,5.614,5.205,7.051c1.058,0.494,2.304,0.806,3.771,0.854
				c0.267,0.01,0.527,0.014,0.78,0.013c0.223,0,0.439-0.006,0.653-0.014c0.028-0.002,0.058-0.001,0.086-0.002
				c0.48-0.02,0.936-0.056,1.369-0.106l0,0.001c6.333-0.737,7.798-4.624,7.798-4.624c0.406-0.354,0.346-1.088-0.136-1.641
				C38.907,32.259,38.188,32.098,37.78,32.45z M25.066,32.162c-0.364,0.178-0.733,0.369-1.121,0.57
				c-0.452,0.23-0.917,0.468-1.474,0.687c0.125-0.592,0.427-1.089,0.795-1.526c0.375-0.432,0.837-0.8,1.374-1.058
				c0.137-0.066,0.279-0.124,0.426-0.174V32.162z M25.066,28.926c-0.161,0.031-0.321,0.061-0.479,0.102
				c-0.512,0.132-1.016,0.313-1.535,0.542c-0.521,0.227-1.048,0.49-1.643,0.796c0.151-0.666,0.55-1.229,1.039-1.69
				c0.497-0.458,1.116-0.804,1.79-0.98c0.271-0.072,0.549-0.107,0.828-0.122V28.926z M25.066,25.204
				c-0.379,0.019-0.75,0.059-1.112,0.127c-0.618,0.118-1.221,0.312-1.827,0.582c-0.609,0.271-1.215,0.603-1.868,1.006
				c0.203-0.754,0.687-1.4,1.284-1.913c0.603-0.511,1.354-0.875,2.152-1.027c0.454-0.088,0.917-0.098,1.372-0.053V25.204z"/>
		</g>
	</g>
	<g>
		<g>
			<path fill="none" d="M35.038,33.937c-0.104,0.021-0.211,0.04-0.32,0.058C34.828,33.977,34.934,33.958,35.038,33.937z"/>
		</g>
	</g>
	<g>
		<g>
			<path fill="none" d="M35.497,33.824c-0.104,0.029-0.212,0.057-0.325,0.082C35.286,33.881,35.393,33.854,35.497,33.824z"/>
		</g>
	</g>
	<g>
		<g>
			<path fill="none" d="M35.929,33.687c-0.109,0.04-0.225,0.077-0.344,0.113C35.704,33.764,35.819,33.727,35.929,33.687z"/>
		</g>
	</g>
	<g>
		<g>
			<path fill="none" d="M30.389,31.23c0.06-0.012,0.12-0.023,0.179-0.036C30.509,31.207,30.449,31.219,30.389,31.23z"/>
		</g>
	</g>
	<g>
		<g>
			<path fill="none" d="M32.812,34.1c-0.216-0.009-0.438-0.023-0.671-0.046C32.374,34.076,32.596,34.091,32.812,34.1z"/>
		</g>
	</g>
	<g>
		<g>
			<path fill="none" d="M34.01,34.08c-0.114,0.009-0.234,0.013-0.354,0.018C33.776,34.093,33.896,34.089,34.01,34.08z"/>
		</g>
	</g>
	<g>
		<g>
			<path fill="none" d="M34.543,34.021c-0.105,0.015-0.216,0.027-0.329,0.038C34.327,34.049,34.438,34.036,34.543,34.021z"/>
		</g>
	</g>
	<g>
		<g>
			<path fill="none" d="M33.433,34.106c-0.131,0.002-0.271-0.001-0.411-0.004C33.162,34.105,33.301,34.108,33.433,34.106z"/>
		</g>
	</g>
	<g>
		<g>
			<path fill="none" d="M30.27,39.187c0.028-0.002,0.058-0.001,0.086-0.002C30.328,39.186,30.298,39.185,30.27,39.187z"/>
		</g>
	</g>
	<g>
		<g>
			<path fill="none" d="M29.617,39.2c-0.253,0.001-0.514-0.003-0.78-0.013C29.103,39.197,29.364,39.201,29.617,39.2z"/>
		</g>
	</g>
	<g>
		<g>
			<path fill="#C6CCD6" d="M30.356,39.185c0.48-0.02,0.935-0.056,1.368-0.105l0-0.001C31.292,39.129,30.836,39.165,30.356,39.185z"
				/>
		</g>
	</g>
	<g>
		<g>
			<path fill="#C6CCD6" d="M30.27,39.187c-0.213,0.008-0.43,0.014-0.653,0.014C29.84,39.2,30.056,39.194,30.27,39.187z"/>
		</g>
	</g>
	<g>
		<g>
			<path fill="#C6CCD6" d="M35.584,33.8c-0.029,0.008-0.058,0.016-0.087,0.024C35.526,33.815,35.555,33.808,35.584,33.8z"/>
		</g>
	</g>
	<g>
		<g>
			<path fill="#C6CCD6" d="M35.172,33.906c-0.044,0.011-0.088,0.021-0.134,0.03C35.084,33.927,35.128,33.917,35.172,33.906z"/>
		</g>
	</g>
	<g>
		<g>
			<path fill="#C6CCD6" d="M33.656,34.098c-0.074,0.003-0.146,0.008-0.223,0.009C33.51,34.105,33.583,34.101,33.656,34.098z"/>
		</g>
	</g>
	<g>
		<g>
			<path fill="#C6CCD6" d="M34.215,34.06c-0.068,0.008-0.135,0.015-0.205,0.021C34.08,34.074,34.146,34.067,34.215,34.06z"/>
		</g>
	</g>
	<g>
		<g>
			<path fill="#C6CCD6" d="M29.456,31.399c0.315-0.051,0.625-0.108,0.933-0.169C30.081,31.291,29.771,31.349,29.456,31.399z"/>
		</g>
	</g>
	<g>
		<g>
			<path fill="#C6CCD6" d="M35.955,33.678c-0.009,0.003-0.018,0.006-0.026,0.009C35.937,33.684,35.946,33.681,35.955,33.678z"/>
		</g>
	</g>
	<g>
		<g>
			<path fill="#C6CCD6" d="M33.022,34.103c-0.071-0.002-0.138-0.001-0.21-0.003C32.884,34.102,32.952,34.101,33.022,34.103z"/>
		</g>
	</g>
	<g>
		<g>
			<path fill="#C6CCD6" d="M30.568,31.194c2.343-0.48,4.449-1.255,6.191-2.25c0-0.002,0-0.004-0.001-0.005
				C35.015,29.935,32.911,30.714,30.568,31.194z"/>
		</g>
	</g>
	<g>
		<g>
			<path fill="#C6CCD6" d="M34.718,33.994c-0.058,0.01-0.115,0.019-0.174,0.027C34.603,34.013,34.66,34.004,34.718,33.994z"/>
		</g>
	</g>
	<g>
		<g>
			<path fill="#918BC1" d="M17.195,30.627c-0.032-0.01-0.065-0.021-0.097-0.03C17.13,30.606,17.163,30.617,17.195,30.627z"/>
		</g>
	</g>
	<g>
		<g>
			<path fill="#918BC1" d="M19.024,31.108c-0.063-0.014-0.125-0.027-0.188-0.042C18.899,31.081,18.961,31.095,19.024,31.108z"/>
		</g>
	</g>
	<g>
		<g>
			<path fill="#918BC1" d="M13.24,28.945c1.141,0.652,2.44,1.209,3.858,1.651C15.68,30.153,14.382,29.596,13.24,28.945L13.24,28.945
				z"/>
		</g>
	</g>
	<g>
		<g>
			<path fill="#918BC1" d="M18.836,31.066c-0.562-0.13-1.11-0.276-1.641-0.439C17.727,30.789,18.274,30.937,18.836,31.066z"/>
		</g>
	</g>
	<g>
		<g>
			<path fill="#918BC1" d="M19.861,31.282c-0.282-0.054-0.562-0.111-0.837-0.174C19.3,31.171,19.579,31.229,19.861,31.282z"/>
		</g>
	</g>
	<g>
		<g>
			<g>
				<path fill="#C6CCD6" d="M0.25,12.849c-1.266,6.561,2.404,12.786,8.197,13.903c0.68,0.131,1.358,0.18,2.029,0.164
					c-1.253-1.229-2.067-2.631-2.31-4.131c-0.051-0.312-0.083-0.627-0.083-0.947c0-1.379,0.479-2.691,1.344-3.883
					c-0.106-0.739-0.163-1.49-0.163-2.256c0-3.371,1.064-6.488,2.873-9.046c0.806-1.141,1.755-2.172,2.83-3.06
					c-0.614-0.263-1.26-0.469-1.937-0.599C7.237,1.875,1.516,6.288,0.25,12.849z"/>
			</g>
		</g>
		<g>
			<g>
				<path fill="#C6CCD6" d="M49.75,12.849c-1.266-6.561-6.988-10.973-12.78-9.855c-0.677,0.13-1.322,0.336-1.937,0.599
					c1.073,0.888,2.024,1.918,2.83,3.06c1.808,2.558,2.873,5.676,2.873,9.046c0,0.767-0.058,1.518-0.163,2.256
					c0.864,1.192,1.344,2.503,1.344,3.883c0,0.32-0.032,0.636-0.083,0.947c-0.244,1.5-1.058,2.902-2.31,4.131
					c0.671,0.016,1.349-0.033,2.029-0.164C47.346,25.635,51.017,19.41,49.75,12.849z"/>
			</g>
		</g>
	</g>
	<g>
		<g>
			<path fill="#918BC1" d="M26.069,24.131c-0.321-0.106-0.66-0.169-1.003-0.205c-0.454-0.045-0.918-0.035-1.372,0.053
				c-0.797,0.152-1.549,0.517-2.152,1.027c-0.597,0.513-1.081,1.159-1.284,1.913c0.653-0.403,1.259-0.735,1.868-1.006
				c0.606-0.271,1.209-0.464,1.827-0.582c0.363-0.068,0.733-0.108,1.112-0.127c0.264-0.014,0.531-0.018,0.806-0.008
				c0.669,0.018,1.362,0.105,2.134,0.167C27.488,24.788,26.816,24.379,26.069,24.131z"/>
		</g>
	</g>
	<g>
		<g>
			<path fill="#918BC1" d="M25.066,27.572c-0.279,0.015-0.556,0.05-0.828,0.122c-0.673,0.177-1.293,0.522-1.79,0.98
				c-0.489,0.461-0.888,1.024-1.039,1.69c0.595-0.306,1.122-0.569,1.643-0.796c0.519-0.229,1.022-0.41,1.535-0.542
				c0.157-0.041,0.318-0.07,0.479-0.102c0.36-0.074,0.727-0.133,1.114-0.164c0.562-0.052,1.151-0.047,1.826-0.078
				C27.28,27.893,26.17,27.513,25.066,27.572z"/>
		</g>
	</g>
	<g>
		<g>
			<path fill="#918BC1" d="M26.417,30.49c-0.462-0.044-0.925,0.026-1.351,0.171c-0.147,0.05-0.29,0.107-0.426,0.174
				c-0.537,0.258-0.999,0.626-1.374,1.058c-0.368,0.438-0.67,0.935-0.795,1.526c0.557-0.219,1.022-0.456,1.474-0.687
				c0.388-0.201,0.757-0.393,1.121-0.57c0.055-0.028,0.113-0.059,0.169-0.085c0.418-0.197,0.824-0.374,1.262-0.509
				c0.438-0.136,0.909-0.222,1.509-0.273C27.636,30.816,27.034,30.546,26.417,30.49z"/>
		</g>
	</g>
	<g>
		<g>
			<path fill="#918BC1" d="M27.295,33.139c-0.468,0.057-0.934,0.248-1.32,0.558c-0.387,0.311-0.682,0.743-0.821,1.209
				c-0.131,0.469-0.128,0.961,0.084,1.412l0.867-0.893c0.254-0.249,0.489-0.453,0.735-0.656c0.25-0.2,0.513-0.398,0.812-0.61
				c0.302-0.215,0.626-0.44,1.018-0.739C28.247,33.148,27.764,33.089,27.295,33.139z"/>
		</g>
	</g>
	<g>
		<g>
			<path fill="#918BC1" d="M29.443,34.756c-0.348,0.097-0.675,0.315-0.909,0.622c-0.235,0.307-0.363,0.701-0.346,1.078
				c0.022,0.376,0.166,0.73,0.481,0.991c0.256-0.318,0.422-0.553,0.573-0.744s0.273-0.336,0.389-0.493
				c0.119-0.157,0.239-0.328,0.384-0.539c0.146-0.215,0.307-0.456,0.513-0.803C30.169,34.665,29.792,34.662,29.443,34.756z"/>
		</g>
	</g>
	<g>
		<g>
			<path fill="#918BC1" d="M32.122,35.49c-0.325,0.133-0.51,0.31-0.652,0.5c-0.136,0.189-0.214,0.396-0.238,0.614
				c-0.025,0.217,0.005,0.446,0.105,0.677c0.105,0.223,0.273,0.475,0.607,0.6c0.226-0.265,0.373-0.419,0.475-0.597
				c0.103-0.174,0.162-0.347,0.181-0.529c0.02-0.183,0-0.374-0.066-0.58C32.462,35.967,32.353,35.75,32.122,35.49z"/>
		</g>
	</g>
	<g>
		<g>
			<path fill="#918BC1" d="M34.698,36.79c-0.008-0.184-0.028-0.353-0.065-0.528c-0.036-0.173-0.088-0.35-0.165-0.536
				c-0.082-0.187-0.177-0.378-0.348-0.598c-0.21,0.188-0.308,0.41-0.371,0.634c-0.056,0.224-0.062,0.457-0.015,0.687
				c0.046,0.229,0.148,0.454,0.31,0.646c0.164,0.186,0.389,0.345,0.673,0.355L34.698,36.79z"/>
		</g>
	</g>
	<g>
		<g>
			<g>
				<g>
					<circle fill="#3C3C3B" cx="15.937" cy="19.004" r="1.889"/>
				</g>
			</g>
		</g>
		<g>
			<g>
				<g>
					<circle fill="#3C3C3B" cx="34.062" cy="19.004" r="1.888"/>
				</g>
			</g>
		</g>
		<g>
			<g>
				<circle fill="#FFFFFF" cx="16.593" cy="18.475" r="0.803"/>
			</g>
		</g>
		<g>
			<g>
				<circle fill="#FFFFFF" cx="34.717" cy="18.475" r="0.803"/>
			</g>
		</g>
	</g>
	<g>
		<g>
			<path fill="#AEAED3" d="M36.803,29.33c-0.015-0.128-0.025-0.258-0.044-0.386c-1.742,0.995-3.848,1.77-6.191,2.25
				c-0.059,0.013-0.119,0.024-0.179,0.036c-0.308,0.061-0.617,0.118-0.933,0.169c0.141,0.682,0.4,1.313,0.839,1.79
				c0.427,0.464,1.021,0.785,1.846,0.864c0.233,0.022,0.455,0.037,0.671,0.046c0.072,0.002,0.14,0.001,0.21,0.003
				c0.139,0.003,0.279,0.006,0.411,0.004c0.077-0.001,0.149-0.006,0.223-0.009c0.12-0.005,0.24-0.009,0.354-0.018
				c0.07-0.006,0.137-0.013,0.205-0.021c0.112-0.011,0.223-0.023,0.329-0.038c0.06-0.009,0.116-0.018,0.174-0.027
				c0.109-0.018,0.216-0.036,0.32-0.058c0.046-0.01,0.09-0.02,0.134-0.03c0.113-0.025,0.222-0.053,0.325-0.082
				c0.029-0.009,0.058-0.017,0.087-0.024c0.12-0.036,0.235-0.073,0.344-0.113c0.008-0.003,0.017-0.006,0.026-0.009
				c0.121-0.046,0.236-0.092,0.344-0.14c0.365-1.026,0.564-2.12,0.564-3.256C36.863,29.96,36.837,29.645,36.803,29.33z"/>
		</g>
	</g>
	<g>
		<g>
			<path fill="#AEAED3" d="M31.627,42.43v-2.816v-0.472c0.033-0.02,0.065-0.042,0.097-0.063c-0.433,0.05-0.888,0.086-1.368,0.105
				c-0.028,0.001-0.058,0-0.086,0.002c-0.214,0.008-0.43,0.014-0.653,0.014c-0.253,0.001-0.514-0.003-0.78-0.013
				c-1.466-0.049-2.712-0.36-3.771-0.854c-3.087-1.437-4.577-4.425-5.205-7.051c-0.282-0.054-0.562-0.111-0.837-0.174
				c-0.063-0.014-0.125-0.027-0.188-0.042c-0.562-0.13-1.109-0.277-1.641-0.439c-0.032-0.01-0.065-0.021-0.097-0.03
				c-1.418-0.442-2.717-0.999-3.858-1.651c-0.062,0.439-0.102,0.884-0.102,1.337c0,3.688,2.076,6.941,5.234,8.859v3.289
				c-1.019,0.718-1.686,1.9-1.686,3.239h3.566h0.697h3.662c0-1.34-0.668-2.522-1.687-3.239V40.79
				c0.675,0.107,1.365,0.173,2.074,0.173c0.023,0,0.043-0.002,0.067-0.002c0.269-0.005,0.535-0.019,0.798-0.038
				c0.132-0.009,0.265-0.019,0.396-0.031c0.276-0.027,0.548-0.063,0.815-0.102v1.641c-1.018,0.719-1.685,1.9-1.685,3.239h3.565
				h0.698h3.66C33.313,44.33,32.646,43.147,31.627,42.43z"/>
		</g>
	</g>
	<g>
		<g>
			<g>
				<path fill="#F6E9E5" d="M18.666,29.977c-0.159,0.279-0.292,0.456-0.448,0.666c-0.152,0.199-0.312,0.392-0.482,0.575
					c-0.337,0.369-0.714,0.711-1.133,1.011c-0.421,0.298-0.89,0.554-1.399,0.723c-0.508,0.172-1.055,0.246-1.583,0.221
					c-0.474-0.022-0.84-0.425-0.817-0.899c0.019-0.403,0.313-0.728,0.692-0.803l0.061-0.012c0.615-0.121,1.125-0.472,1.553-0.966
					c0.212-0.248,0.404-0.526,0.569-0.826c0.083-0.148,0.159-0.303,0.228-0.458c0.063-0.146,0.138-0.331,0.158-0.431
					c0.161-0.792,0.933-1.305,1.725-1.145c0.792,0.161,1.304,0.934,1.144,1.726c-0.032,0.155-0.086,0.3-0.159,0.43L18.666,29.977z"
					/>
			</g>
		</g>
		<g>
			<g>
				<path fill="#F6E9E5" d="M32.337,28.777c0.02,0.1,0.095,0.284,0.159,0.431c0.068,0.155,0.145,0.31,0.228,0.458
					c0.165,0.3,0.357,0.578,0.57,0.826c0.428,0.494,0.938,0.845,1.553,0.966l0.06,0.012c0.466,0.092,0.77,0.544,0.679,1.01
					c-0.079,0.396-0.417,0.675-0.803,0.692c-0.528,0.025-1.075-0.049-1.583-0.221c-0.51-0.169-0.978-0.425-1.399-0.723
					c-0.419-0.3-0.797-0.642-1.134-1.011c-0.168-0.184-0.329-0.376-0.481-0.575c-0.155-0.21-0.288-0.387-0.448-0.666l-0.104-0.183
					c-0.401-0.701-0.157-1.596,0.544-1.997c0.702-0.4,1.596-0.157,1.997,0.546C32.252,28.479,32.307,28.63,32.337,28.777z"/>
			</g>
		</g>
	</g>
</g>
</svg>
