<?xml version="1.0" encoding="utf-8"?>
<!-- Generator: Adobe Illustrator 16.0.0, SVG Export Plug-In . SVG Version: 6.00 Build 0)  -->
<!DOCTYPE svg PUBLIC "-//W3C//DTD SVG 1.1//EN" "http://www.w3.org/Graphics/SVG/1.1/DTD/svg11.dtd">
<svg version="1.1" id="Layer_1" xmlns="http://www.w3.org/2000/svg" xmlns:xlink="http://www.w3.org/1999/xlink" x="0px" y="0px"
	 width="50px" height="67.716px" viewBox="0 0 50 67.716" enable-background="new 0 0 50 67.716" xml:space="preserve">
<g>
	<g>
		<g>
			<g>
				<path fill="#3C3C3B" d="M7.284,40.663c-0.591,1.873-0.92,3.867-0.92,5.945c0,18.586,8.345,20.813,18.636,20.813V49.746
					C17.514,49.746,10.969,46.108,7.284,40.663z"/>
			</g>
		</g>
		<g>
			<g>
				<path fill="#6F6F6E" d="M25,49.746v17.676c10.291,0,18.637-2.228,18.637-20.813c0-2.078-0.329-4.072-0.92-5.945
					C39.031,46.108,32.487,49.746,25,49.746z"/>
			</g>
		</g>
		<g>
			<g>
				<path fill="#3C3C3B" d="M25,27.407c-8.275,0-15.284,5.562-17.716,13.256C10.969,46.108,17.514,51.355,25,51.355
					c9.318,0,14.03-5.247,17.716-10.692C40.283,32.969,33.276,27.407,25,27.407z"/>
			</g>
		</g>
	</g>
	<g>
		<g>
			<g>
				<circle fill="#F5C799" cx="16.886" cy="25.869" r="5.719"/>
			</g>
		</g>
		<g>
			<g>
				<g>
					<path fill="#3C3C3B" d="M3.921,26.447c0,10.405,2.535,18.84,21.376,18.84V0C14.894,0,3.921,16.041,3.921,26.447z"/>
				</g>
			</g>
			<g>
				<g>
					<path fill="#6F6F6E" d="M46.673,26.447C46.673,16.041,35.704,0,25.298,0v45.287C44.138,45.287,46.673,36.852,46.673,26.447z"/>
				</g>
			</g>
		</g>
		<path fill="#9C9B9B" d="M35.168,19.142c-2.033,0-6.96,2.536-10.159,2.536c-3.001,0-7.66-2.536-9.568-2.536
			c-4.663,0-6.755,1.245-6.755,5.91c0,4.664,3.782,8.445,8.446,8.445v4.358c0,0.705,0.096,1.385,0.259,2.038
			c0.914,3.678,4.228,6.408,8.187,6.408c3.961,0,7.274-2.729,8.188-6.406c0.164-0.654,0.259-1.335,0.259-2.04v-4.386
			c4.409-0.282,7.9-3.937,7.9-8.417C41.923,20.387,39.833,19.142,35.168,19.142z"/>
		<g>
			<g>
				<g>
					<circle fill="#411611" cx="23.126" cy="33.361" r="1.226"/>
				</g>
			</g>
			<g>
				<g>
					<circle fill="#411611" cx="27.484" cy="33.361" r="1.226"/>
				</g>
			</g>
		</g>
		<g>
			<g>
				<g>
					<g>
						<g>
							<circle fill="#723E2B" cx="16.893" cy="25.308" r="3.029"/>
						</g>
					</g>
				</g>
				<g>
					<g>
						<g>
							<circle fill="#723E2B" cx="33.716" cy="25.308" r="3.03"/>
						</g>
					</g>
				</g>
				<g>
					<g>
						<circle fill="#FFFFFF" cx="17.916" cy="24.298" r="1.01"/>
					</g>
				</g>
				<g>
					<g>
						<circle fill="#FFFFFF" cx="34.725" cy="24.298" r="1.01"/>
					</g>
				</g>
			</g>
		</g>
		<g>
			<g>
				<g>
					<g>
						<path fill="#411611" d="M25.304,42.636c-3.502,0-4.898-1.97-4.954-2.054c-0.101-0.146-0.065-0.345,0.08-0.444
							c0.146-0.101,0.345-0.063,0.444,0.082c0.057,0.077,1.29,1.777,4.43,1.777c2.884,0,4.436-1.785,4.451-1.803
							c0.115-0.134,0.316-0.15,0.45-0.038c0.134,0.116,0.151,0.317,0.036,0.451C30.17,40.69,28.48,42.636,25.304,42.636z"/>
					</g>
				</g>
			</g>
		</g>
	</g>
	<g>
		<g>
			<g>
				<g>
					<path fill="#9C9B9B" d="M44.55,65.637c-0.756,1.766-3.174,2.421-5.399,1.465c-2.225-0.957-3.414-3.163-2.655-4.926"/>
				</g>
			</g>
			<g>
				<g>
					<g>
						<path fill="#6F6F6E" d="M44.471,66.114c5.741-14.352,7.019-24.904,3.796-31.362c-1.589-3.188-4.057-4.84-5.836-5.321
							l-2.32,8.552c-0.315-0.086-0.431-0.155-0.438-0.157c1.374,0.825,3.692,7.189-3.432,24.997L44.471,66.114z"/>
					</g>
				</g>
			</g>
		</g>
		<g>
			<g>
				<g>
					<path fill="#9C9B9B" d="M5.449,65.637c0.759,1.766,3.177,2.421,5.402,1.465c2.224-0.957,3.411-3.163,2.655-4.926"/>
				</g>
			</g>
			<g>
				<g>
					<g>
						<path fill="#3C3C3B" d="M5.531,66.114C-0.211,51.763-1.49,41.21,1.731,34.752c1.59-3.188,4.058-4.84,5.837-5.321l2.32,8.552
							c0.314-0.086,0.432-0.155,0.438-0.157c-1.373,0.825-3.692,7.189,3.432,24.997L5.531,66.114z"/>
					</g>
				</g>
			</g>
		</g>
	</g>
	<g>
		<g>
			<g>
				<path fill="#9C9B9B" d="M19.848,62.796c-2.715,0-4.919,2.202-4.919,4.92h9.841C24.769,64.998,22.567,62.796,19.848,62.796z"/>
			</g>
		</g>
		<g>
			<g>
				<path fill="#9C9B9B" d="M30.15,62.796c-2.715,0-4.918,2.202-4.918,4.92h9.841C35.072,64.998,32.869,62.796,30.15,62.796z"/>
			</g>
		</g>
	</g>
</g>
</svg>
