<?xml version="1.0" encoding="utf-8"?>
<!-- Generator: Adobe Illustrator 16.0.0, SVG Export Plug-In . SVG Version: 6.00 Build 0)  -->
<!DOCTYPE svg PUBLIC "-//W3C//DTD SVG 1.1//EN" "http://www.w3.org/Graphics/SVG/1.1/DTD/svg11.dtd">
<svg version="1.1" id="Layer_1" xmlns="http://www.w3.org/2000/svg" xmlns:xlink="http://www.w3.org/1999/xlink" x="0px" y="0px"
	 width="50px" height="55.705px" viewBox="0 0 50 55.705" enable-background="new 0 0 50 55.705" xml:space="preserve">
<g>
	<g>
		<g>
			<g>
				<path fill="#CB8128" d="M18.043,44.094c-0.946,0-1.713,0.768-1.713,1.714c0,3.462-2.817,6.28-6.281,6.28
					c-1.797,0-3.418-0.761-4.562-1.976c-0.321,0.326-0.767,0.532-1.259,0.532c-0.974,0-1.765-0.793-1.765-1.767
					c0-0.868,0.629-1.587,1.456-1.735c-0.044-0.197-0.079-0.397-0.103-0.603c-1.7,0.768-2.83,0.346-3.44-0.087
					c0.176,2.667,1.438,5.037,3.34,6.685c0.446-0.964,1.533-1.504,2.59-1.22c0.571,0.154,1.047,0.521,1.34,1.033
					c0.291,0.514,0.365,1.109,0.207,1.68L6.53,54.264c0.061-0.216,0.033-0.439-0.076-0.632c-0.111-0.193-0.29-0.332-0.506-0.391
					c-0.454-0.12-0.917,0.146-1.041,0.595c-0.018,0.063-0.012,0.123-0.014,0.186c1.494,0.944,3.261,1.493,5.156,1.493
					c5.353,0,9.708-4.354,9.708-9.707C19.757,44.862,18.989,44.094,18.043,44.094z M9.75,54.331c-0.498,0-0.901-0.404-0.901-0.901
					c0-0.498,0.403-0.902,0.901-0.902s0.902,0.404,0.902,0.902C10.651,53.926,10.248,54.331,9.75,54.331z"/>
			</g>
		</g>
		<g>
			<g>
				<path fill="#CB8128" d="M3.833,48.878c0,0.218,0.178,0.395,0.396,0.395c0.2,0,0.357-0.151,0.384-0.343
					c-0.144-0.251-0.274-0.511-0.384-0.782v0.335C4.011,48.483,3.833,48.661,3.833,48.878z"/>
			</g>
		</g>
		<g>
			<g>
				<path fill="#4B190D" d="M3.816,46.541c-0.029-0.242-0.047-0.485-0.047-0.732c0-0.721,0.122-1.428,0.361-2.101
					c0.316-0.893-0.15-1.872-1.043-2.188c-0.892-0.316-1.87,0.149-2.188,1.041c-0.37,1.043-0.557,2.136-0.557,3.247
					c0,0.217,0.018,0.432,0.033,0.646C0.986,46.886,2.116,47.308,3.816,46.541z"/>
			</g>
		</g>
		<g>
			<g>
				<path fill="#4B190D" d="M2.463,48.878c0,0.974,0.791,1.767,1.765,1.767c0.492,0,0.938-0.206,1.259-0.532
					c-0.336-0.355-0.628-0.755-0.875-1.183c-0.027,0.191-0.185,0.343-0.384,0.343c-0.217,0-0.396-0.177-0.396-0.395
					s0.178-0.396,0.396-0.396v-0.335c-0.131-0.322-0.234-0.658-0.31-1.005C3.093,47.292,2.463,48.01,2.463,48.878z"/>
			</g>
		</g>
		<g>
			<g>
				<path fill="#4B190D" d="M5.948,53.242c0.216,0.059,0.395,0.197,0.506,0.391c0.109,0.192,0.137,0.416,0.076,0.632l1.322,0.367
					c0.158-0.57,0.084-1.166-0.207-1.68c-0.292-0.512-0.769-0.879-1.34-1.033c-1.057-0.284-2.144,0.256-2.59,1.22
					c0.37,0.322,0.761,0.621,1.178,0.884c0.002-0.063-0.004-0.123,0.014-0.186C5.032,53.387,5.494,53.122,5.948,53.242z"/>
			</g>
		</g>
		<g>
			<g>
				<circle fill="#4B190D" cx="9.75" cy="53.429" r="0.902"/>
			</g>
		</g>
	</g>
	<g>
		<g>
			<g>
				<g>
					<path fill="#F39E2B" d="M34.075,43.351c0-0.974,0.792-1.767,1.767-1.767v1.372c-0.219,0-0.396,0.177-0.396,0.395
						s0.178,0.395,0.396,0.395c0.216,0,0.394-0.177,0.394-0.395h1.222c1.005-1.825,1.625-3.891,1.72-6.1
						c-2.844,4.258-7.991,7.116-13.893,7.131v6.186c0.853,0,1.681-0.088,2.491-0.233v0.881c-1.337,1.041-2.202,2.663-2.202,4.489
						h11.388c0-1.826-0.863-3.448-2.199-4.489v-4.389c0.589-0.551,1.126-1.157,1.613-1.801c-0.169,0.054-0.346,0.091-0.534,0.091
						C34.867,45.117,34.075,44.325,34.075,43.351z"/>
				</g>
			</g>
			<g>
				<g>
					<path fill="#4B190D" d="M36.235,43.351c0,0.218-0.177,0.395-0.394,0.395c-0.219,0-0.396-0.177-0.396-0.395
						s0.178-0.395,0.396-0.395v-1.372c-0.975,0-1.767,0.793-1.767,1.767s0.792,1.766,1.767,1.766c0.188,0,0.365-0.037,0.534-0.091
						c0.401-0.531,0.758-1.091,1.082-1.675H36.235z"/>
				</g>
			</g>
		</g>
		<g>
			<g>
				<g>
					<path fill="none" d="M17.356,42.531c-0.369-0.187-0.729-0.385-1.079-0.596C16.627,42.146,16.987,42.344,17.356,42.531z"/>
				</g>
			</g>
			<g>
				<g>
					<path fill="none" d="M15.204,41.235c-0.313-0.223-0.615-0.459-0.909-0.702C14.589,40.777,14.891,41.012,15.204,41.235z"/>
				</g>
			</g>
			<g>
				<g>
					<path fill="none" d="M16.232,41.908c-0.342-0.207-0.678-0.425-1.002-0.655C15.554,41.483,15.89,41.7,16.232,41.908z"/>
				</g>
			</g>
			<g>
				<g>
					<path fill="none" d="M14.146,40.409c-0.287-0.243-0.567-0.492-0.834-0.754C13.578,39.917,13.858,40.166,14.146,40.409z"/>
				</g>
			</g>
			<g>
				<g>
					<path fill="#CB8128" d="M14.295,40.533c-0.05-0.04-0.1-0.082-0.149-0.124C14.195,40.451,14.245,40.493,14.295,40.533z"/>
				</g>
			</g>
			<g>
				<g>
					<polygon fill="#CB8128" points="17.371,42.539 17.371,42.539 17.356,42.531 					"/>
				</g>
			</g>
			<g>
				<g>
					<path fill="#CB8128" d="M11.363,36.645c0,0.253,0.025,0.497,0.039,0.746c0.182,0.267,0.374,0.526,0.575,0.782
						c-0.201-0.256-0.393-0.516-0.575-0.782c0.115,2.145,0.724,4.152,1.7,5.932c0.34-0.043,0.686,0.015,0.999,0.17
						c0.424,0.21,0.738,0.572,0.89,1.019c0.149,0.447,0.117,0.926-0.093,1.349c-0.004,0.007-0.009,0.012-0.013,0.019
						c0.294,0.33,0.602,0.646,0.925,0.948v4.389c-1.336,1.041-2.2,2.663-2.2,4.489h11.386c0-1.826-0.863-3.448-2.199-4.489v-0.881
						c0.808,0.146,1.637,0.233,2.487,0.233v-6.186c-0.013,0-0.029,0.001-0.042,0.001c-2.86,0-5.541-0.673-7.872-1.845l0,0
						c-0.004-0.002-0.01-0.005-0.015-0.008c-0.369-0.187-0.729-0.385-1.079-0.596c-0.017-0.009-0.03-0.019-0.045-0.027
						c-0.342-0.208-0.678-0.425-1.002-0.655c-0.01-0.007-0.018-0.013-0.026-0.018c-0.313-0.223-0.615-0.458-0.909-0.702
						c-0.05-0.04-0.1-0.082-0.149-0.124c-0.287-0.243-0.567-0.492-0.834-0.754c0.267,0.262,0.547,0.511,0.834,0.754
						c0.05,0.042,0.099,0.084,0.149,0.124c0.294,0.243,0.596,0.479,0.909,0.702c0.008,0.005,0.018,0.012,0.026,0.018
						c0.324,0.23,0.66,0.448,1.002,0.655c0.015,0.009,0.029,0.019,0.045,0.027c0.35,0.211,0.709,0.409,1.079,0.596
						c0.004,0.002,0.01,0.004,0.015,0.008c-0.156-0.924-0.295-1.896-0.448-2.917c1.095,0.332,2.258,0.648,3.493,0.938
						c-0.001,0.003-0.001,0.006-0.004,0.008c0.931,0.465,1.899,0.989,2.905,1.578c0.642,0.377,1.296,0.772,1.968,1.205v-6.07v-14.56
						C17.596,22.721,11.363,28.957,11.363,36.645z M12.056,38.267c0.178,0.224,0.36,0.442,0.55,0.655
						C12.416,38.709,12.234,38.491,12.056,38.267z M12.665,38.983c0.203,0.223,0.41,0.441,0.625,0.653
						C13.075,39.424,12.868,39.206,12.665,38.983z"/>
				</g>
			</g>
			<g>
				<g>
					<path fill="#CB8128" d="M16.278,41.935c-0.017-0.009-0.03-0.019-0.045-0.027C16.248,41.917,16.261,41.926,16.278,41.935z"/>
				</g>
			</g>
			<g>
				<g>
					<path fill="#CB8128" d="M15.23,41.252c-0.009-0.006-0.018-0.013-0.026-0.018C15.212,41.24,15.22,41.246,15.23,41.252z"/>
				</g>
			</g>
			<g>
				<g>
					<path fill="#4B190D" d="M14.991,44.511c-0.151-0.446-0.466-0.809-0.89-1.019c-0.313-0.155-0.659-0.213-0.999-0.17
						c0.503,0.917,1.093,1.779,1.783,2.556c0.004-0.007,0.009-0.012,0.013-0.019C15.107,45.437,15.14,44.958,14.991,44.511z"/>
				</g>
			</g>
		</g>
		<g>
			<g>
				<path fill="#CB8128" d="M25.285,22.721v14.56h0.002v6.07c0.673-0.433,1.326-0.828,1.97-1.205
					c1.004-0.589,1.972-1.113,2.903-1.578c1.262-0.295,2.447-0.616,3.56-0.956c-0.146,0.989-0.277,1.938-0.423,2.836
					c2.415-1.25,4.443-3.042,5.881-5.196c0.01-0.202,0.032-0.402,0.032-0.606C39.209,28.957,32.976,22.721,25.285,22.721z"/>
			</g>
		</g>
		<g>
			<g>
				<path fill="#D5D2B1" d="M25.287,39.924h-0.002l0,0c-0.672-0.434-7.39-0.413-8.482-0.747c0.149,1.021,0.413,2.438,0.568,3.361
					c0.797,4.738,2.061,8.029,7.914,8.029v-6.186c2.918-0.009,5.65-0.712,8.012-1.935c0.146-0.898,0.312-2.212,0.458-3.2
					C32.642,39.587,25.96,39.491,25.287,39.924z"/>
			</g>
		</g>
		<g>
			<g>
				<path fill="#F6F3CF" d="M33.296,42.448c-2.361,1.223-5.093,1.926-8.012,1.935v6.186C31.312,50.568,32.515,47.237,33.296,42.448z
					"/>
			</g>
		</g>
		<g>
			<g>
				<path fill="#4B190D" d="M15.539,39.118c-0.359-0.305-0.811-0.449-1.286-0.414c-0.47,0.039-0.897,0.257-1.203,0.616
					c-0.305,0.36-0.451,0.816-0.414,1.288c0.039,0.47,0.257,0.896,0.618,1.201c0.322,0.274,0.722,0.421,1.139,0.421
					c0.049,0,0.097-0.002,0.146-0.006l-0.111-1.366c-0.104,0.007-0.207-0.024-0.287-0.093c-0.081-0.068-0.13-0.164-0.137-0.269
					c-0.009-0.106,0.023-0.209,0.091-0.289c0.068-0.08,0.164-0.129,0.269-0.137c0.104-0.013,0.208,0.023,0.288,0.092
					c0.081,0.068,0.129,0.164,0.137,0.27l1.367-0.111C16.118,39.851,15.9,39.423,15.539,39.118z"/>
			</g>
		</g>
		<g>
			<g>
				<circle fill="#4B190D" cx="16.278" cy="43.267" r="0.902"/>
			</g>
		</g>
		<g>
			<g>
				<circle fill="#4B190D" cx="37.619" cy="40.494" r="0.902"/>
			</g>
		</g>
	</g>
	<g>
		<g>
			<polygon fill="#07171B" points="22.741,37.661 22.749,37.673 22.743,37.661 			"/>
		</g>
	</g>
	<g>
		<g>
			<path fill="#A84720" d="M25.251,36.999c0.007,0,0.013-0.002,0.018-0.002c-0.005,0-0.011-0.001-0.018-0.001V36.999z"/>
		</g>
	</g>
	<g>
		<g>
			<g>
				<g>
					<g>
						<g>
							<circle fill="#AF5B2B" cx="12.51" cy="7.415" r="7.415"/>
						</g>
					</g>
					<g>
						<g>
							<circle fill="#4B190D" cx="12.51" cy="7.415" r="4.275"/>
						</g>
					</g>
				</g>
				<g>
					<g>
						<g>
							<circle fill="#F39E2B" cx="37.62" cy="7.415" r="7.415"/>
						</g>
					</g>
					<g>
						<g>
							<circle fill="#4B190D" cx="37.62" cy="7.415" r="4.275"/>
						</g>
					</g>
				</g>
			</g>
			<g>
				<g>
					<g>
						<circle fill="#F39E2B" cx="12.51" cy="7.415" r="7.415"/>
					</g>
				</g>
				<g>
					<g>
						<circle fill="#4B190D" cx="12.51" cy="7.415" r="4.275"/>
					</g>
				</g>
			</g>
			<g>
				<g>
					<path fill="#F39E2B" d="M46.846,29.915c0.056,0.032,0.113,0.064,0.167,0.097c0,0-2.33-3.268-3.446-7.813
						c0-9.833-4.414-18.867-18.314-18.867v21.424v4.85c-0.004,0.002-0.007,0.002-0.009,0.006l0.009,3.749v0.895h0.001l0.016,6.072
						c11.671,1.497,22.167-9.761,22.167-9.761C47.282,30.338,47.082,30.121,46.846,29.915z"/>
				</g>
			</g>
			<g>
				<g>
					<path fill="#CB8128" d="M6.961,22.198c-1.115,4.545-3.445,7.813-3.445,7.813c0.055-0.032,0.111-0.064,0.167-0.097
						c-0.236,0.206-0.436,0.424-0.59,0.651c0,0,5.538,5.934,13.039,8.611c0-0.314,0-1.219,0-3.569c0-2.671,0.325-3.981,0.618-4.622
						c3.053,1.208,5.385,2.671,5.99,3.946c0.756-0.419,1.613-0.678,2.536-0.678v-9.5V3.331C11.375,3.331,6.961,12.365,6.961,22.198z
						"/>
				</g>
			</g>
			<g>
				<g>
					<path fill="#D5D2B1" d="M19.274,29.202c-0.75,0.309-1.467,0.691-2.071,1.182c0,0-1.071,0.383-1.071,5.225
						c0,2.351,0,3.255,0,3.569c2.828,1.01,5.763,1.835,9.128,1.835l0.026-11.401C22.134,28.059,20.875,28.695,19.274,29.202z"/>
				</g>
			</g>
			<g>
				<g>
					<path fill="#F6F3CF" d="M31.241,29.202c0.749,0.309,1.468,0.691,2.072,1.182c0,0,1.07,0.383,1.07,5.225
						c0,2.351,0,3.255,0,3.569c-2.827,1.01-5.946,1.835-9.127,1.835l-0.026-11.401C28.381,28.059,29.64,28.695,31.241,29.202z"/>
				</g>
			</g>
			<g>
				<g>
					<g>
						<path fill="#4B190D" d="M12.959,18.883c0,0,7.626-2.211,7.455,5.543C20.414,24.426,12.959,27.133,12.959,18.883z"/>
					</g>
				</g>
				<g>
					<g>
						<circle fill="#68A284" cx="16.775" cy="21.803" r="2.827"/>
					</g>
				</g>
				<g>
					<g>
						<circle fill="#FFFFFF" cx="17.72" cy="20.636" r="0.975"/>
					</g>
				</g>
				<g>
					<g>
						<path fill="#4B190D" d="M37.619,18.883c0,0-7.625-2.211-7.453,5.543C30.167,24.426,37.619,27.133,37.619,18.883z"/>
					</g>
				</g>
				<g>
					<g>
						<circle fill="#68A284" cx="33.755" cy="21.803" r="2.828"/>
					</g>
				</g>
				<g>
					<g>
						<circle fill="#FFFFFF" cx="34.866" cy="20.636" r="0.975"/>
					</g>
				</g>
			</g>
			<g>
				<g>
					<g>
						<g>
							<path fill="#D76C79" d="M24.808,32.34c-0.424-0.077-0.785-0.263-1.024-0.542c-1.126-1.319-2.61-2.233-3.402-2.68
								c0.771-0.234,2.369-0.597,4.862-0.597c2.458,0,4.07,0.364,4.848,0.598c-1.409,0.863-2.641,1.818-3.501,2.721
								c-0.241,0.254-0.564,0.423-0.956,0.5H24.808z"/>
						</g>
					</g>
					<g>
						<g>
							<path fill="#4B190D" d="M25.244,28.804c1.894,0,3.274,0.219,4.148,0.422c-1.206,0.782-2.231,1.607-3.005,2.419
								c-0.195,0.206-0.458,0.345-0.78,0.412h-0.748c-0.384-0.073-0.673-0.222-0.861-0.442c-0.913-1.07-2.052-1.878-2.887-2.394
								C21.984,29.019,23.358,28.804,25.244,28.804 M25.244,28.238c-3.758,0-5.553,0.825-5.542,0.825c0,0,0,0,0.001,0
								c0.042,0.061,2.316,1.103,3.865,2.919c0.324,0.38,0.785,0.563,1.239,0.64h0.854c0.418-0.077,0.822-0.259,1.134-0.587
								c1.618-1.697,3.94-2.958,3.961-2.982C30.757,29.052,28.959,28.238,25.244,28.238L25.244,28.238z"/>
						</g>
					</g>
				</g>
				<g>
					<g>
						<path fill="#4B190D" d="M24.901,34.504c-0.698,1.204-1.58,1.888-2.623,2.029c-2.359,0.317-4.866-2.155-4.892-2.18
							c-0.133-0.136-0.35-0.136-0.484,0c-0.134,0.132-0.134,0.35,0,0.483c0.104,0.105,2.432,2.411,4.941,2.411
							c0.175,0,0.351-0.011,0.527-0.035c1.138-0.155,2.103-0.817,2.875-1.967c0.771,1.149,1.736,1.812,2.874,1.967
							c0.176,0.024,0.353,0.035,0.528,0.035c2.509,0,4.836-2.306,4.94-2.411c0.134-0.134,0.133-0.352,0-0.485
							c-0.135-0.132-0.352-0.133-0.487,0.002c-0.024,0.024-2.527,2.494-4.888,2.18c-1.045-0.146-1.925-0.821-2.625-2.029V32.64
							c0.026-0.004,0.051-0.013,0.076-0.019h-0.854c0.032,0.006,0.062,0.016,0.093,0.02V34.504z"/>
					</g>
				</g>
			</g>
			<g>
				<g>
					<g>
						<g>
							<g>
								<path fill="#8E6451" d="M0.343,34.693c-0.083,0-0.167-0.028-0.232-0.089c-0.139-0.128-0.149-0.345-0.021-0.484
									c6.77-7.386,17.278-3.252,17.383-3.208c0.175,0.07,0.261,0.27,0.19,0.445c-0.07,0.175-0.271,0.26-0.446,0.188
									c-0.102-0.04-10.176-3.994-16.622,3.038C0.527,34.656,0.435,34.693,0.343,34.693z"/>
							</g>
						</g>
					</g>
					<g>
						<g>
							<g>
								<path fill="#8E6451" d="M2.572,36.849c-0.086,0-0.172-0.032-0.238-0.097c-0.137-0.132-0.14-0.349-0.009-0.483
									c6.341-6.538,14.612-4.338,14.694-4.315c0.182,0.052,0.29,0.24,0.238,0.422c-0.05,0.184-0.236,0.291-0.422,0.239
									c-0.079-0.021-7.968-2.108-14.019,4.131C2.75,36.815,2.661,36.849,2.572,36.849z"/>
							</g>
						</g>
					</g>
					<g>
						<g>
							<g>
								<path fill="#8E6451" d="M5.42,39.248c-0.068,0-0.137-0.019-0.198-0.062c-0.154-0.109-0.19-0.323-0.083-0.478
									c4.393-6.241,11.748-5.634,11.819-5.627c0.189,0.017,0.327,0.184,0.31,0.373c-0.018,0.188-0.173,0.327-0.373,0.308
									c-0.071-0.005-7.037-0.569-11.195,5.34C5.633,39.198,5.528,39.248,5.42,39.248z"/>
							</g>
						</g>
					</g>
				</g>
				<g>
					<g>
						<g>
							<g>
								<path fill="#8E6451" d="M49.657,34.693c-0.093,0-0.185-0.037-0.251-0.109c-6.445-7.032-16.521-3.077-16.623-3.038
									c-0.177,0.071-0.375-0.014-0.447-0.188c-0.071-0.176,0.015-0.375,0.19-0.445c0.105-0.044,10.614-4.178,17.384,3.208
									c0.128,0.14,0.118,0.356-0.021,0.484C49.824,34.665,49.741,34.693,49.657,34.693z"/>
							</g>
						</g>
					</g>
					<g>
						<g>
							<g>
								<path fill="#8E6451" d="M47.428,36.849c-0.089,0-0.177-0.034-0.245-0.104c-6.061-6.247-13.939-4.152-14.019-4.131
									c-0.183,0.052-0.371-0.056-0.421-0.238c-0.052-0.183,0.056-0.371,0.238-0.423c0.083-0.022,8.352-2.223,14.694,4.315
									c0.131,0.135,0.127,0.352-0.008,0.483C47.601,36.817,47.514,36.849,47.428,36.849z"/>
							</g>
						</g>
					</g>
					<g>
						<g>
							<g>
								<path fill="#8E6451" d="M44.58,39.248c-0.108,0-0.213-0.05-0.281-0.146c-4.159-5.912-11.127-5.345-11.196-5.34
									c-0.197,0.015-0.355-0.12-0.372-0.308c-0.017-0.189,0.121-0.356,0.31-0.373c0.073-0.007,7.428-0.614,11.82,5.627
									c0.108,0.154,0.072,0.368-0.083,0.478C44.718,39.229,44.648,39.248,44.58,39.248z"/>
							</g>
						</g>
					</g>
				</g>
			</g>
		</g>
		<g>
			<g>
				<path fill="none" d="M16.927,32.285c-1.354-0.81-2.857-1.496-4.417-1.901c1.711,0.57,3.167,1.25,4.407,1.968
					C16.919,32.329,16.923,32.307,16.927,32.285z"/>
			</g>
		</g>
		<g>
			<g>
				<path fill="#4B190D" d="M31.629,11.349c-0.38-0.28-0.846-0.396-1.312-0.323l0.208,1.354c0.104-0.014,0.207,0.011,0.291,0.074
					c0.085,0.062,0.141,0.153,0.158,0.257c0.032,0.216-0.118,0.417-0.332,0.45c-0.222,0.031-0.417-0.116-0.45-0.33l-1.355,0.206
					c0.133,0.872,0.887,1.499,1.745,1.499c0.087,0,0.177-0.006,0.266-0.02c0.963-0.147,1.625-1.049,1.479-2.012
					C32.256,12.039,32.009,11.627,31.629,11.349z"/>
			</g>
		</g>
		<g>
			<g>
				<path fill="#4B190D" d="M28.437,16.466c-0.488-0.337-1.077-0.463-1.656-0.356c-0.581,0.106-1.085,0.434-1.419,0.919
					c-0.031,0.044-0.048,0.091-0.076,0.137v2.247c0.158,0.267,0.368,0.508,0.641,0.695l0.778-1.127
					c-0.381-0.264-0.478-0.791-0.215-1.175c0.126-0.185,0.317-0.309,0.538-0.349c0.219-0.041,0.443,0.007,0.628,0.136
					c0.382,0.264,0.479,0.792,0.216,1.175l1.129,0.775C29.692,18.541,29.439,17.159,28.437,16.466z"/>
			</g>
		</g>
		<g>
			<g>
				<path fill="#4B190D" d="M25.251,19.344v-2.113C24.884,17.905,24.9,18.698,25.251,19.344z"/>
			</g>
		</g>
		<g>
			<g>
				<path fill="#4B190D" d="M25.251,6.074c0.007,0,0.013,0,0.018,0c0.005,0,0.012,0,0.017,0l0,0v1.843
					c0.343,0.208,0.74,0.336,1.169,0.336c1.24,0,2.249-1.009,2.249-2.25h-1.371c0,0.485-0.394,0.878-0.878,0.878
					c-0.483,0-0.877-0.393-0.877-0.878c0-0.483,0.395-0.876,0.877-0.876V3.756c-1.241,0-2.248,1.009-2.248,2.248
					c0,0.797,0.419,1.494,1.044,1.894V6.074L25.251,6.074z"/>
			</g>
		</g>
		<g>
			<g>
				<path fill="#4B190D" d="M25.251,6.074c0.007,0,0.013,0,0.018,0C25.264,6.074,25.258,6.074,25.251,6.074L25.251,6.074z"/>
			</g>
		</g>
		<g>
			<g>
				<path fill="#4B190D" d="M25.269,6.074c0.005,0,0.012,0,0.017,0l0,0C25.281,6.074,25.274,6.074,25.269,6.074z"/>
			</g>
		</g>
		<g>
			<g>
				<path fill="#4B190D" d="M31.588,7.896l0.827-1.093c-0.173-0.131-0.207-0.381-0.076-0.554c0.13-0.174,0.378-0.208,0.553-0.077
					c0.173,0.132,0.207,0.379,0.076,0.554l1.094,0.826c0.587-0.776,0.433-1.885-0.343-2.472c-0.776-0.587-1.886-0.433-2.474,0.342
					C30.659,6.2,30.812,7.309,31.588,7.896z"/>
			</g>
		</g>
		<g>
			<g>
				<path fill="#4B190D" d="M34.904,12.957l0.953-0.984c-0.157-0.152-0.161-0.402-0.009-0.558c0.151-0.158,0.403-0.161,0.56-0.009
					c0.075,0.072,0.118,0.171,0.119,0.276c0.003,0.106-0.038,0.206-0.111,0.281l0.984,0.955c0.33-0.339,0.505-0.786,0.498-1.257
					c-0.007-0.472-0.197-0.913-0.538-1.24c-0.699-0.678-1.817-0.66-2.496,0.04C34.187,11.161,34.205,12.281,34.904,12.957z"/>
			</g>
		</g>
		<g>
			<g>
				<path fill="#4B190D" d="M40.048,16.246c0.091-0.055,0.196-0.07,0.299-0.045c0.102,0.026,0.188,0.089,0.242,0.181
					c0.054,0.09,0.07,0.196,0.046,0.298c-0.027,0.102-0.09,0.188-0.182,0.243l0.706,1.175c0.404-0.243,0.69-0.627,0.805-1.085
					c0.113-0.458,0.043-0.932-0.2-1.338c-0.242-0.404-0.628-0.688-1.084-0.804c-0.458-0.114-0.933-0.043-1.337,0.199
					c-0.835,0.501-1.107,1.587-0.606,2.423l1.176-0.706C39.8,16.6,39.861,16.357,40.048,16.246z"/>
			</g>
		</g>
		<g>
			<g>
				<path fill="#4B190D" d="M13.682,27.413c0.161-0.146,0.413-0.134,0.559,0.026c0.071,0.079,0.107,0.18,0.102,0.286
					c-0.005,0.104-0.05,0.201-0.129,0.273c-0.161,0.146-0.411,0.134-0.559-0.027l-1.013,0.923c0.348,0.383,0.827,0.575,1.307,0.575
					c0.425,0,0.851-0.15,1.188-0.459c0.349-0.316,0.553-0.75,0.575-1.221c0.023-0.47-0.14-0.923-0.458-1.272
					c-0.655-0.719-1.773-0.77-2.494-0.117L13.682,27.413z"/>
			</g>
		</g>
		<g>
			<g>
				<path fill="#4B190D" d="M9.75,23.569c0.975,0,1.766-0.792,1.766-1.765h-1.372c0,0.217-0.177,0.394-0.394,0.394
					c-0.218,0-0.396-0.176-0.396-0.394c0-0.218,0.178-0.396,0.396-0.396v-1.371c-0.974,0-1.767,0.792-1.767,1.766
					C7.983,22.777,8.775,23.569,9.75,23.569z"/>
			</g>
		</g>
		<g>
			<g>
				<path fill="#4B190D" d="M16.156,9.155c0.244,0.119,0.506,0.18,0.771,0.18c0.193,0,0.389-0.034,0.578-0.099l-0.448-1.295
					c-0.1,0.034-0.209,0.027-0.302-0.018c-0.095-0.045-0.166-0.125-0.2-0.227c-0.034-0.099-0.028-0.207,0.017-0.301
					c0.047-0.095,0.127-0.166,0.228-0.201c0.098-0.034,0.206-0.027,0.302,0.02c0.094,0.044,0.165,0.126,0.199,0.226l1.296-0.447
					c-0.153-0.445-0.471-0.805-0.896-1.012c-0.425-0.207-0.903-0.236-1.349-0.082s-0.806,0.472-1.011,0.896
					c-0.207,0.425-0.235,0.904-0.082,1.349C15.413,8.589,15.73,8.949,16.156,9.155z"/>
			</g>
		</g>
		<g>
			<g>
				<path fill="#4B190D" d="M21.33,14.535c0.973,0,1.765-0.792,1.765-1.765h-1.371c0,0.217-0.178,0.395-0.394,0.395
					c-0.218,0-0.396-0.177-0.396-0.395c0-0.218,0.178-0.395,0.396-0.395v-1.371c-0.976,0-1.766,0.792-1.766,1.766
					C19.563,13.744,20.354,14.535,21.33,14.535z"/>
			</g>
		</g>
		<g>
			<g>
				<path fill="#4B190D" d="M16.211,17.366c0.219,0.072,0.444,0.11,0.668,0.11c0.328,0,0.653-0.078,0.955-0.23
					c1.043-0.528,1.47-1.81,0.954-2.856c-0.252-0.513-0.687-0.893-1.225-1.072c-0.54-0.18-1.115-0.139-1.624,0.12l0.619,1.224
					c0.178-0.09,0.382-0.105,0.569-0.043c0.189,0.063,0.34,0.196,0.43,0.377c0.186,0.377,0.033,0.839-0.342,1.028
					c-0.179,0.092-0.383,0.107-0.571,0.043c-0.187-0.063-0.339-0.196-0.427-0.376l-1.231,0.604
					C15.238,16.806,15.673,17.186,16.211,17.366z"/>
			</g>
		</g>
		<g>
			<g>
				<path fill="#4B190D" d="M41.552,24.852c0,0.216-0.179,0.395-0.396,0.395s-0.395-0.179-0.395-0.395
					c0-0.219,0.177-0.396,0.395-0.396v-1.371c-0.973,0-1.766,0.793-1.766,1.766c0,0.974,0.793,1.765,1.766,1.765
					c0.974,0,1.766-0.791,1.766-1.765H41.552z"/>
			</g>
		</g>
		<g>
			<g>
				<circle fill="#4B190D" cx="37.014" cy="27.056" r="0.902"/>
			</g>
		</g>
		<g>
			<g>
				<circle fill="#4B190D" cx="33.892" cy="28.24" r="0.901"/>
			</g>
		</g>
		<g>
			<g>
				<circle fill="#4B190D" cx="12.51" cy="11.69" r="0.902"/>
			</g>
		</g>
		<g>
			<g>
				<circle fill="#4B190D" cx="10.066" cy="13.903" r="0.902"/>
			</g>
		</g>
		<g>
			<g>
				<circle fill="#4B190D" cx="10.066" cy="27.057" r="0.902"/>
			</g>
		</g>
		<g>
			<g>
				<circle fill="#4B190D" cx="5.719" cy="28.86" r="0.901"/>
			</g>
		</g>
		<g>
			<g>
				<path fill="#4B190D" d="M25.229,10.635c-0.499,0-0.902,0.405-0.902,0.901c0,0.499,0.403,0.903,0.902,0.903
					c0.008,0,0.015-0.005,0.021-0.005v-1.795C25.244,10.639,25.238,10.635,25.229,10.635z"/>
			</g>
		</g>
		<g>
			<g>
				<path fill="#4B190D" d="M26.131,11.537c0-0.477-0.375-0.859-0.845-0.89v1.781C25.756,12.396,26.131,12.016,26.131,11.537z"/>
			</g>
		</g>
		<g>
			<g>
				<path fill="#4B190D" d="M25.286,10.647c-0.012-0.001-0.022-0.006-0.035-0.008v1.795c0.013,0,0.023-0.006,0.035-0.007V10.647z"/>
			</g>
		</g>
		<g>
			<g>
				<circle fill="#4B190D" cx="22.006" cy="19.544" r="0.901"/>
			</g>
		</g>
		<g>
			<g>
				<circle fill="#4B190D" cx="24.207" cy="22.721" r="0.902"/>
			</g>
		</g>
		<g>
			<g>
				<circle fill="#4B190D" cx="33.297" cy="16.507" r="0.902"/>
			</g>
		</g>
		<g>
			<g>
				<circle fill="#4B190D" cx="27.333" cy="23.704" r="0.902"/>
			</g>
		</g>
		<g>
			<g>
				<circle fill="#4B190D" cx="27.333" cy="26.626" r="0.903"/>
			</g>
		</g>
		<g>
			<g>
				<circle fill="#4B190D" cx="19.274" cy="26.626" r="0.903"/>
			</g>
		</g>
		<g>
			<g>
				<circle fill="#4B190D" cx="23.31" cy="26.155" r="0.902"/>
			</g>
		</g>
	</g>
</g>
</svg>
