<?xml version="1.0" encoding="utf-8"?>
<!-- Generator: Adobe Illustrator 16.0.0, SVG Export Plug-In . SVG Version: 6.00 Build 0)  -->
<!DOCTYPE svg PUBLIC "-//W3C//DTD SVG 1.1//EN" "http://www.w3.org/Graphics/SVG/1.1/DTD/svg11.dtd">
<svg version="1.1" id="Layer_1" xmlns="http://www.w3.org/2000/svg" xmlns:xlink="http://www.w3.org/1999/xlink" x="0px" y="0px"
	 width="50px" height="58.686px" viewBox="0 0 50 58.686" enable-background="new 0 0 50 58.686" xml:space="preserve">
<g>
	<g>
		<g>
			<g>
				<rect x="16.164" y="48.372" fill="#AF5B2B" width="7.137" height="7.729"/>
			</g>
		</g>
		<g>
			<g>
				<rect x="26.698" y="48.372" fill="#EA8232" width="7.138" height="7.729"/>
			</g>
		</g>
		<g>
			<g>
				<path fill="#F5C799" d="M19.733,53.403c-2.777,0-5.03,2.252-5.03,5.031h10.061C24.764,55.655,22.512,53.403,19.733,53.403z"/>
			</g>
		</g>
		<g>
			<g>
				<path fill="#F5C799" d="M30.266,53.403c-2.777,0-5.029,2.252-5.029,5.031h10.061C35.297,55.655,33.045,53.403,30.266,53.403z"/>
			</g>
		</g>
	</g>
	<g>
		<g>
			<g>
				<path fill="#AF5B2B" d="M11.996,34.218c-0.434,1.335-0.676,2.756-0.676,4.235c0,7.556,6.125,14.827,13.681,14.827V40.688
					C19.505,40.688,14.701,38.098,11.996,34.218z"/>
			</g>
		</g>
		<g>
			<g>
				<path fill="#EA8232" d="M25.001,40.688V53.28c7.553,0,13.679-7.271,13.679-14.827c0-1.479-0.241-2.9-0.676-4.235
					C35.298,38.098,30.495,40.688,25.001,40.688z"/>
			</g>
		</g>
		<g>
			<g>
				<path fill="#AF5B2B" d="M25.001,24.774c-6.075,0-11.219,3.962-13.005,9.443c2.705,3.88,7.509,7.618,13.005,7.618
					c6.839,0,10.297-3.738,13.003-7.618C36.218,28.736,31.075,24.774,25.001,24.774z"/>
			</g>
		</g>
	</g>
	<g>
		<g>
			<g>
				<circle fill="#F5C799" cx="16.704" cy="18.672" r="5.848"/>
			</g>
		</g>
		<g>
			<g>
				<g>
					<g>
						<circle fill="#AF5B2B" cx="6.198" cy="20.065" r="6.198"/>
					</g>
				</g>
				<g>
					<g>
						<circle fill="#575756" cx="6.198" cy="20.065" r="4.039"/>
					</g>
				</g>
			</g>
			<g>
				<g>
					<g>
						<circle fill="#EA8232" cx="43.802" cy="20.065" r="6.198"/>
					</g>
				</g>
				<g>
					<g>
						<circle fill="#575756" cx="43.801" cy="20.065" r="4.039"/>
					</g>
				</g>
			</g>
		</g>
		<g>
			<g>
				<g>
					<path fill="#AF5B2B" d="M6.041,19.263c0,10.638,8.625,19.263,19.264,19.263V0C14.666,0,6.041,8.623,6.041,19.263z"/>
				</g>
			</g>
			<g>
				<g>
					<path fill="#EA8232" d="M44.567,19.263C44.567,8.623,35.944,0,25.305,0v38.526C35.944,38.526,44.567,29.901,44.567,19.263z"/>
				</g>
			</g>
		</g>
		<g>
			<g>
				<g>
					<path fill="#575756" d="M34.218,26.443c4.507-0.288,8.076-4.026,8.076-8.605c0-4.771-3.865-8.635-8.634-8.635
						c-4.028,0-7.402,2.762-8.356,6.493c-0.955-3.731-4.329-6.493-8.357-6.493c-4.768,0-8.635,3.865-8.635,8.635
						c0,4.768,3.867,8.634,8.635,8.634v4.456c0,0.721,0.099,1.415,0.265,2.085c1.947-2.484,4.969-4.088,8.37-4.088
						c3.402,0,6.424,1.604,8.371,4.089c0.167-0.67,0.265-1.365,0.265-2.086V26.443z"/>
				</g>
			</g>
			<g>
				<g>
					<path fill="#F5C799" d="M25.582,28.925c-3.401,0-6.423,1.604-8.37,4.088c0.935,3.759,4.322,6.551,8.37,6.551
						c4.05,0,7.438-2.791,8.371-6.55C32.006,30.528,28.984,28.925,25.582,28.925z"/>
				</g>
			</g>
		</g>
		<g>
			<g>
				<g>
					<circle fill="#411611" cx="23.076" cy="26.333" r="1.254"/>
				</g>
			</g>
			<g>
				<g>
					<circle fill="#411611" cx="27.531" cy="26.333" r="1.253"/>
				</g>
			</g>
		</g>
		<g>
			<g>
				<g>
					<circle fill="#F5C799" cx="16.703" cy="18.098" r="5.71"/>
				</g>
			</g>
			<g>
				<g>
					<circle fill="#F5C799" cx="33.902" cy="18.098" r="5.71"/>
				</g>
			</g>
			<g>
				<g>
					<g>
						<g>
							<circle fill="#411611" cx="16.704" cy="18.098" r="3.097"/>
						</g>
					</g>
				</g>
				<g>
					<g>
						<g>
							<circle fill="#411611" cx="33.904" cy="18.098" r="3.097"/>
						</g>
					</g>
				</g>
				<g>
					<g>
						<circle fill="#FFFFFF" cx="17.75" cy="17.066" r="1.033"/>
					</g>
				</g>
				<g>
					<g>
						<circle fill="#FFFFFF" cx="34.936" cy="17.066" r="1.033"/>
					</g>
				</g>
			</g>
		</g>
		<g>
			<g>
				<g>
					<g>
						<path fill="#411611" d="M25.305,36.814c-3.145,0-4.398-1.77-4.451-1.845c-0.09-0.131-0.056-0.309,0.075-0.398
							c0.129-0.091,0.308-0.058,0.398,0.072c0.049,0.071,1.157,1.597,3.978,1.597c2.588,0,3.98-1.603,3.995-1.619
							c0.102-0.12,0.285-0.136,0.403-0.031c0.122,0.102,0.135,0.283,0.032,0.403C29.672,35.066,28.154,36.814,25.305,36.814z"/>
					</g>
				</g>
			</g>
		</g>
		<g>
			<g>
				<g>
					<path fill="#AF5B2B" d="M26.04,18.253c0.38-0.938,0.598-3.467-1.171-6.667c-0.778-1.41-0.738-1.148-1.004-1.832
						c-0.266-0.683-0.641-1.322-1.139-1.915c-0.509-0.587-0.655-0.9-1.576-1.326c-0.384,0.94-0.554,1.099-0.889,2.293
						c-0.208,0.745-0.276,1.835-0.006,2.516c0.27,0.682,0.576,1.409,1.393,2.281C22.161,14.192,25.537,16.416,26.04,18.253z"/>
				</g>
			</g>
			<g>
				<g>
					<path fill="#AF5B2B" d="M28.505,14.926c1.228-4.777-3.169-9.294-3.667-9.887c-0.508-0.586-1.114-1.137-2.035-1.563
						c-0.385,0.941-0.455,1.754-0.428,2.533c0.037,0.772-0.153,2.792,1.61,4.092C26.543,11.984,27.577,12.995,28.505,14.926z"/>
				</g>
			</g>
		</g>
	</g>
	<g>
		<g>
			<g>
				<g>
					<path fill="#F5C799" d="M41.441,57.085c-0.636,1.484-2.67,2.035-4.542,1.231c-1.871-0.806-2.87-2.66-2.232-4.144"/>
				</g>
			</g>
			<g>
				<g>
					<g>
						<path fill="#EA8232" d="M41.374,57.486c4.829-12.07,5.904-20.944,3.193-26.374c-1.337-2.681-3.412-4.071-4.908-4.476
							l-1.951,7.192c-0.265-0.071-0.363-0.13-0.368-0.132c1.155,0.694,3.105,6.046-2.886,21.021L41.374,57.486z"/>
					</g>
				</g>
			</g>
		</g>
		<g>
			<g>
				<g>
					<path fill="#F5C799" d="M8.559,57.085c0.638,1.484,2.671,2.035,4.542,1.231c1.871-0.806,2.869-2.66,2.232-4.144"/>
				</g>
			</g>
			<g>
				<g>
					<g>
						<path fill="#AF5B2B" d="M8.627,57.486c-4.829-12.07-5.905-20.944-3.196-26.374c1.338-2.681,3.413-4.071,4.91-4.476l1.95,7.192
							c0.265-0.071,0.363-0.13,0.369-0.132c-1.155,0.694-3.105,6.046,2.886,21.021L8.627,57.486z"/>
					</g>
				</g>
			</g>
		</g>
	</g>
</g>
</svg>
