<?xml version="1.0" encoding="utf-8"?>
<!-- Generator: Adobe Illustrator 16.0.0, SVG Export Plug-In . SVG Version: 6.00 Build 0)  -->
<!DOCTYPE svg PUBLIC "-//W3C//DTD SVG 1.1//EN" "http://www.w3.org/Graphics/SVG/1.1/DTD/svg11.dtd">
<svg version="1.1" id="Layer_1" xmlns="http://www.w3.org/2000/svg" xmlns:xlink="http://www.w3.org/1999/xlink" x="0px" y="0px"
	 width="50px" height="73.164px" viewBox="0 0 50 73.164" enable-background="new 0 0 50 73.164" xml:space="preserve">
<g>
	<g>
		<path fill="none" d="M39.803,55.479c-0.152,0.032-0.312,0.061-0.475,0.087C39.491,55.539,39.651,55.511,39.803,55.479z"/>
	</g>
</g>
<g>
	<g>
		<path fill="none" d="M40.484,55.314c-0.154,0.043-0.316,0.083-0.483,0.121C40.168,55.397,40.33,55.357,40.484,55.314z"/>
	</g>
</g>
<g>
	<g>
		<path fill="none" d="M41.123,55.109c-0.162,0.06-0.333,0.114-0.511,0.168C40.791,55.224,40.96,55.169,41.123,55.109z"/>
	</g>
</g>
<g>
	<g>
		<path fill="none" d="M32.917,51.472c0.089-0.017,0.178-0.035,0.267-0.053C33.095,51.437,33.006,51.455,32.917,51.472z"/>
	</g>
</g>
<g>
	<g>
		<path fill="none" d="M36.506,55.722c-0.319-0.014-0.648-0.035-0.993-0.067C35.858,55.687,36.188,55.708,36.506,55.722z"/>
	</g>
</g>
<g>
	<g>
		<path fill="none" d="M38.282,55.691c-0.17,0.014-0.347,0.021-0.524,0.028C37.935,55.712,38.112,55.705,38.282,55.691z"/>
	</g>
</g>
<g>
	<g>
		<path fill="none" d="M39.07,55.606c-0.156,0.021-0.321,0.039-0.487,0.057C38.75,55.646,38.914,55.628,39.07,55.606z"/>
	</g>
</g>
<g>
	<g>
		<path fill="none" d="M37.426,55.732c-0.194,0.002-0.401-0.002-0.609-0.006C37.025,55.73,37.231,55.734,37.426,55.732z"/>
	</g>
</g>
<g>
	<g>
		<path fill="none" d="M32.74,63.256c0.043-0.001,0.087-0.001,0.128-0.003C32.827,63.255,32.783,63.255,32.74,63.256z"/>
	</g>
</g>
<g>
	<g>
		<path fill="none" d="M31.775,63.275c-0.377,0.002-0.762-0.004-1.156-0.017C31.013,63.271,31.398,63.277,31.775,63.275z"/>
	</g>
</g>
<g>
	<g>
		<path fill="#C6CCD6" d="M32.868,63.253c0.712-0.027,1.384-0.081,2.027-0.156h0.002C34.254,63.171,33.579,63.225,32.868,63.253z"/>
	</g>
</g>
<g>
	<g>
		<path fill="#C6CCD6" d="M32.74,63.256c-0.316,0.012-0.635,0.019-0.965,0.02C32.105,63.274,32.424,63.267,32.74,63.256z"/>
	</g>
</g>
<g>
	<g>
		<path fill="#C6CCD6" d="M40.612,55.277c-0.043,0.013-0.087,0.024-0.128,0.037C40.525,55.302,40.569,55.29,40.612,55.277z"/>
	</g>
</g>
<g>
	<g>
		<path fill="#C6CCD6" d="M40.001,55.436c-0.064,0.015-0.131,0.03-0.198,0.043C39.871,55.466,39.937,55.45,40.001,55.436z"/>
	</g>
</g>
<g>
	<g>
		<path fill="#C6CCD6" d="M37.758,55.72c-0.11,0.004-0.218,0.011-0.332,0.013C37.54,55.73,37.647,55.724,37.758,55.72z"/>
	</g>
</g>
<g>
	<g>
		<path fill="#C6CCD6" d="M38.583,55.663c-0.1,0.01-0.2,0.021-0.302,0.028C38.384,55.684,38.483,55.673,38.583,55.663z"/>
	</g>
</g>
<g>
	<g>
		<path fill="#C6CCD6" d="M31.536,51.722c0.467-0.073,0.926-0.159,1.381-0.25C32.463,51.563,32.003,51.648,31.536,51.722z"/>
	</g>
</g>
<g>
	<g>
		<path fill="#C6CCD6" d="M41.161,55.096c-0.013,0.005-0.025,0.009-0.038,0.014C41.135,55.104,41.147,55.101,41.161,55.096z"/>
	</g>
</g>
<g>
	<g>
		<path fill="#C6CCD6" d="M36.817,55.727c-0.104-0.002-0.205-0.001-0.311-0.005C36.613,55.726,36.713,55.725,36.817,55.727z"/>
	</g>
</g>
<g>
	<g>
		<path fill="#C6CCD6" d="M33.184,51.419c3.468-0.712,6.587-1.86,9.169-3.331c0-0.004,0-0.006-0.001-0.009
			C39.771,49.553,36.652,50.705,33.184,51.419z"/>
	</g>
</g>
<g>
	<g>
		<path fill="#C6CCD6" d="M39.329,55.565c-0.085,0.015-0.17,0.028-0.258,0.041C39.159,55.594,39.244,55.58,39.329,55.565z"/>
	</g>
</g>
<g>
	<g>
		<path fill="#918BC1" d="M13.376,50.577c-0.048-0.015-0.096-0.029-0.145-0.044C13.28,50.548,13.328,50.563,13.376,50.577z"/>
	</g>
</g>
<g>
	<g>
		<path fill="#918BC1" d="M16.085,51.292c-0.093-0.021-0.185-0.042-0.279-0.063C15.9,51.25,15.992,51.271,16.085,51.292z"/>
	</g>
</g>
<g>
	<g>
		<path fill="#918BC1" d="M7.517,48.089c1.691,0.965,3.614,1.789,5.714,2.444c-2.1-0.655-4.023-1.481-5.714-2.447
			C7.517,48.088,7.517,48.088,7.517,48.089z"/>
	</g>
</g>
<g>
	<g>
		<path fill="#918BC1" d="M15.806,51.229c-0.833-0.192-1.644-0.409-2.43-0.651C14.163,50.819,14.973,51.037,15.806,51.229z"/>
	</g>
</g>
<g>
	<g>
		<path fill="#918BC1" d="M17.326,51.549c-0.419-0.079-0.832-0.167-1.241-0.257C16.495,51.382,16.907,51.47,17.326,51.549z"/>
	</g>
</g>
<g>
	<g>
		<g>
			<g>
				<rect x="14.799" y="61.226" fill="#3C3C3B" width="8.467" height="9.169"/>
			</g>
		</g>
		<g>
			<g>
				<rect x="27.295" y="61.226" fill="#3C3C3B" width="8.468" height="9.169"/>
			</g>
		</g>
		<g>
			<g>
				<path fill="#3C3C3B" d="M19.032,67.194c-3.294,0-5.968,2.672-5.968,5.97H25C25,69.866,22.33,67.194,19.032,67.194z"/>
			</g>
		</g>
		<g>
			<g>
				<path fill="#3C3C3B" d="M31.528,67.194c-3.294,0-5.967,2.672-5.967,5.97h11.938C37.498,69.866,34.824,67.194,31.528,67.194z"/>
			</g>
		</g>
	</g>
	<g>
		<g>
			<g>
				<path fill="#D3C5C1" d="M11.808,47.883c-0.44,1.353-0.684,2.793-0.684,4.295c0,7.666,6.212,13.88,13.876,13.88V54.446
					C19.426,54.446,14.552,51.818,11.808,47.883z"/>
			</g>
		</g>
		<g>
			<g>
				<path fill="#F5F0F2" d="M25,54.446v11.611c7.664,0,13.877-6.214,13.877-13.88c0-1.502-0.244-2.942-0.684-4.295
					C35.448,51.818,30.574,54.446,25,54.446z"/>
			</g>
		</g>
		<g>
			<g>
				<path fill="#D3C5C1" d="M25,38.302c-6.162,0-11.381,4.021-13.192,9.581c2.744,3.936,7.618,6.563,13.192,6.563
					s10.448-2.628,13.193-6.563C36.381,42.322,31.164,38.302,25,38.302z"/>
			</g>
		</g>
	</g>
	<g>
		<g>
			<g>
				<path fill="#3C3C3B" d="M31.733,60.357c-1.917,0-3.47-1.553-3.47-3.47c0-1.916,1.553-3.47,3.47-3.47"/>
			</g>
		</g>
		<g>
			<g>
				<path fill="#3C3C3B" d="M18.268,60.357c1.915,0,3.467-1.553,3.467-3.47c0-1.916-1.553-3.47-3.467-3.47"/>
			</g>
		</g>
	</g>
</g>
<g>
	<g>
		<g>
			<path fill="#3C3C3B" d="M38.434,0c-3.939,0-7.13,3.872-7.13,7.811s3.191,7.13,7.13,7.13c3.938,0,7.132-3.192,7.132-7.13
				S42.372,0,38.434,0z"/>
		</g>
	</g>
	<g>
		<g>
			<path fill="#3C3C3B" d="M11.566,0C7.628,0,4.435,3.872,4.435,7.811s3.193,7.13,7.131,7.13c3.94,0,7.131-3.192,7.131-7.13
				S15.506,0,11.566,0z"/>
		</g>
	</g>
</g>
<g>
	<g>
		<g>
			<path fill="#F5F0F2" d="M48.008,31.809c0.16-1.092,0.244-2.206,0.244-3.342c0-12.809-10.357-23.195-23.154-23.25
				c-0.032,0-0.063-0.002-0.097-0.002v47.177c0.079,0.001,0.166,0.006,0.239,0.006c3.315,0,7.743-0.927,7.743-0.927
				c0.088-0.017,0.178-0.035,0.267-0.053c3.469-0.714,6.585-1.866,9.168-3.34c0,0.003,0,0.005,0,0.009
				C47.092,45.42,50,41.69,50,37.56C50,35.519,49.291,33.575,48.008,31.809z"/>
		</g>
	</g>
	<g>
		<g>
			<path fill="#D3C5C1" d="M25,5.216c-12.841,0-23.25,10.41-23.25,23.251c0,1.136,0.085,2.25,0.241,3.342
				C0.711,33.575,0,35.519,0,37.56c0,4.129,2.907,7.86,7.583,10.529c0-0.001,0-0.001,0-0.003c1.692,0.966,3.614,1.792,5.714,2.447
				c0.047,0.015,0.095,0.029,0.145,0.044c0.785,0.242,1.597,0.459,2.429,0.651c0.093,0.021,0.187,0.043,0.279,0.063
				c0.41,0.09,1.241,0.257,1.241,0.257s4.994,0.798,7.609,0.844V5.216L25,5.216z"/>
		</g>
	</g>
</g>
<g>
	<g>
		<g>
			<path fill="#3C3C3B" d="M7.861,27.375c-3.327,4.504-2.999,10.392,0.735,13.151c3.733,2.756,7.212,0.366,10.54-4.138
				c3.328-4.506,5.245-9.42,1.511-12.177C16.914,21.454,11.188,22.87,7.861,27.375z"/>
		</g>
	</g>
	<g>
		<g>
			<path fill="#3C3C3B" d="M42.139,27.375c3.327,4.504,2.999,10.392-0.735,13.151c-3.733,2.756-7.213,0.366-10.541-4.138
				c-3.326-4.506-5.244-9.42-1.51-12.177C33.086,21.454,38.811,22.87,42.139,27.375z"/>
		</g>
	</g>
</g>
<g>
	<g>
		<g>
			<circle fill="#F5F0F2" cx="35.063" cy="31.042" r="3.929"/>
		</g>
	</g>
	<g>
		<g>
			<g>
				<circle fill="#3C3C3B" cx="35.064" cy="31.042" r="2.764"/>
			</g>
		</g>
	</g>
	<g>
		<g>
			<circle fill="#D3C5C1" cx="14.937" cy="31.042" r="3.93"/>
		</g>
	</g>
	<g>
		<g>
			<g>
				<circle fill="#3C3C3B" cx="14.937" cy="31.042" r="2.763"/>
			</g>
		</g>
	</g>
	<g>
		<g>
			<circle fill="#FFFFFF" cx="15.967" cy="30.214" r="1.014"/>
		</g>
	</g>
	<g>
		<g>
			<circle fill="#FFFFFF" cx="35.909" cy="30.214" r="1.014"/>
		</g>
	</g>
</g>
<g>
	<g>
		<path fill="#3C3C3B" d="M29.692,42.719c0-0.015-0.003-0.03-0.005-0.045c0-0.002,0-0.003,0-0.005c0,0-0.002-0.001-0.002-0.002
			c-0.06-1.175-2.132-2.117-4.685-2.117c-2.551,0-4.624,0.942-4.686,2.117c0,0.001-0.001,0.002-0.001,0.002
			c0,0.002,0.001,0.003,0.001,0.005c-0.001,0.015-0.005,0.03-0.005,0.045c0,1.085,1.72,2.534,3.966,2.803v3.23
			c-0.223,0.263-0.739,0.761-1.264,0.48c-0.333-0.179-0.745-0.056-0.922,0.276c-0.177,0.33-0.054,0.743,0.276,0.922
			c0.333,0.179,0.66,0.253,0.968,0.253c0.658,0,1.236-0.34,1.659-0.726c0.416,0.386,0.99,0.727,1.655,0.727
			c0.309,0,0.637-0.073,0.977-0.25c0.333-0.173,0.464-0.583,0.292-0.917c-0.172-0.333-0.584-0.463-0.918-0.29
			c-0.562,0.288-1.058-0.202-1.271-0.467v-3.239C27.972,45.253,29.692,43.804,29.692,42.719z"/>
	</g>
</g>
</svg>
