<?xml version="1.0" encoding="utf-8"?>
<!-- Generator: Adobe Illustrator 16.0.0, SVG Export Plug-In . SVG Version: 6.00 Build 0)  -->
<!DOCTYPE svg PUBLIC "-//W3C//DTD SVG 1.1//EN" "http://www.w3.org/Graphics/SVG/1.1/DTD/svg11.dtd">
<svg version="1.1" id="Layer_1" xmlns="http://www.w3.org/2000/svg" xmlns:xlink="http://www.w3.org/1999/xlink" x="0px" y="0px"
	 width="50px" height="55.514px" viewBox="0 0 50 55.514" enable-background="new 0 0 50 55.514" xml:space="preserve">
<g>
	<g>
		<g>
			<g>
				<path fill="#6F6F6E" d="M34.737,50.931v-4.39c2.59-2.412,4.251-5.796,4.414-9.573c-2.842,4.258-7.99,7.115-13.891,7.13v6.186
					c0.852,0,1.68-0.088,2.489-0.234v0.882c-1.337,1.042-2.201,2.663-2.201,4.488h11.388C36.936,53.594,36.073,51.973,34.737,50.931
					z"/>
			</g>
		</g>
		<g>
			<g>
				<path fill="#3C3C3B" d="M25.26,22.438c-7.69,0-13.922,6.233-13.922,13.922c0,0.253,0.026,0.498,0.039,0.746
					c0.2,3.722,1.85,7.053,4.409,9.435v1.813c-0.981,2.196-3.18,3.732-5.735,3.732c-3.215,0-5.869-2.43-6.233-5.548
					c-0.028-0.24-0.046-0.484-0.046-0.732c0-0.72,0.121-1.426,0.36-2.101c0.316-0.893-0.151-1.87-1.042-2.188
					c-0.891-0.316-1.871,0.15-2.187,1.043c-0.37,1.041-0.557,2.133-0.557,3.245c0,0.219,0.018,0.431,0.032,0.646
					c0.336,5.051,4.54,9.061,9.674,9.061c1.262,0,2.463-0.25,3.57-0.688c-0.021,0.195-0.035,0.394-0.035,0.594h11.386
					c0-1.825-0.862-3.446-2.199-4.488v-0.882c0.106,0.02,0.215,0.028,0.323,0.046c0.263,0.049,0.543,0.087,0.833,0.117
					c0.031,0.002,0.062,0.007,0.093,0.011c0.39,0.036,0.797,0.061,1.239,0.061v-6.186c2.917-0.007,5.649-0.711,8.011-1.935
					c2.415-1.25,4.443-3.043,5.88-5.195c0.01-0.203,0.033-0.402,0.033-0.607C39.184,28.672,32.951,22.438,25.26,22.438z"/>
			</g>
		</g>
	</g>
	<g>
		<g>
			<g>
				<g>
					<g>
						<circle fill="#AF5B2B" cx="12.51" cy="7.414" r="7.415"/>
					</g>
				</g>
				<g>
					<g>
						<circle fill="#4B190D" cx="12.51" cy="7.414" r="4.275"/>
					</g>
				</g>
			</g>
			<g>
				<g>
					<g>
						<circle fill="#6F6F6E" cx="37.62" cy="7.414" r="7.416"/>
					</g>
				</g>
				<g>
					<g>
						<circle fill="#07171B" cx="37.619" cy="7.414" r="4.275"/>
					</g>
				</g>
			</g>
		</g>
		<g>
			<g>
				<g>
					<circle fill="#6F6F6E" cx="12.51" cy="7.414" r="7.415"/>
				</g>
			</g>
			<g>
				<g>
					<circle fill="#07171B" cx="12.51" cy="7.414" r="4.275"/>
				</g>
			</g>
		</g>
	</g>
	<g>
		<g>
			<path fill="none" d="M12.51,30.382c1.713,0.571,3.167,1.252,4.407,1.969c0.003-0.022,0.007-0.045,0.011-0.067
				C15.573,31.476,14.071,30.789,12.51,30.382z"/>
		</g>
	</g>
	<g>
		<g>
			<path fill="#E96332" d="M25.252,6.073L25.252,6.073c0.006,0.001,0.011,0,0.017,0C25.263,6.073,25.258,6.073,25.252,6.073z"/>
		</g>
	</g>
	<g>
		<g>
			<polygon fill="#07171B" points="22.744,37.66 22.742,37.66 22.75,37.673 			"/>
		</g>
	</g>
	<g>
		<g>
			<path fill="#A84720" d="M25.287,6.073c-0.005,0-0.012,0-0.018,0C25.275,6.073,25.282,6.074,25.287,6.073L25.287,6.073z"/>
		</g>
	</g>
	<g>
		<g>
			<path fill="#A84720" d="M25.287,21.624V6.074c-0.005,0-0.012-0.001-0.018-0.001c-0.006,0-0.011,0.001-0.017,0.001v15.552
				C25.263,21.626,25.275,21.624,25.287,21.624z"/>
		</g>
	</g>
	<g>
		<g>
			<path fill="#A84720" d="M25.252,36.996c0.006,0,0.011,0.001,0.017,0.001c0.006,0,0.013-0.001,0.018-0.001v-9.5v-5.872
				c-0.012,0-0.024,0.002-0.035,0.002v5.87V36.996z"/>
		</g>
	</g>
	<g>
		<g>
			<path fill="#A84720" d="M25.252,36.996v0.002c0.006,0,0.011-0.001,0.017-0.001C25.263,36.997,25.258,36.996,25.252,36.996z"/>
		</g>
	</g>
	<g>
		<g>
			<g>
				<path fill="#3C3C3B" d="M25.277,33.6l0.009-3.991c-0.003-0.002-0.006-0.003-0.009-0.004v-4.851V3.332
					c-13.901,0-18.357,9.033-18.314,18.867c0.02,4.708,1.273,12.743,1.273,12.743s0.396,1.56,7.896,4.237
					c2.828,1.008,5.762,1.833,9.127,1.833l0.016-6.759c0,0,0.001,0,0.001,0V33.6z M16.75,30.985c0,0.003-0.001,0.005-0.001,0.006
					C16.749,30.99,16.75,30.987,16.75,30.985L16.75,30.985z"/>
			</g>
		</g>
		<g>
			<g>
				<g>
					<path fill="#6F6F6E" d="M25.253,3.332v21.423v4.845c-0.008,0.003-0.016,0.006-0.024,0.01l0.027,11.402
						c2.863,0,5.673-0.67,8.269-1.54c0.291-0.091,0.572-0.198,0.857-0.3c7.506-2.675,7.909-4.236,7.909-4.236
						s1.237-8.186,1.274-12.738C43.651,12.365,39.154,3.332,25.253,3.332z"/>
				</g>
			</g>
			<g>
				<g>
					<path fill="#6F6F6E" d="M34.383,39.178c0-0.003,0-0.005,0-0.007c-0.285,0.102-0.567,0.209-0.857,0.3
						C33.814,39.375,34.101,39.278,34.383,39.178z"/>
				</g>
			</g>
		</g>
	</g>
	<g>
		<g>
			<g>
				<path fill="#07171B" d="M12.959,18.883c0,0,7.625-2.211,7.454,5.542C20.413,24.425,12.959,27.133,12.959,18.883z"/>
			</g>
		</g>
		<g>
			<g>
				<circle fill="#B1B1B1" cx="16.775" cy="21.804" r="2.827"/>
			</g>
		</g>
		<g>
			<g>
				<circle fill="#FFFFFF" cx="17.72" cy="20.635" r="0.975"/>
			</g>
		</g>
		<g>
			<g>
				<path fill="#07171B" d="M37.621,18.883c0,0-7.626-2.211-7.455,5.542C30.166,24.425,37.621,27.133,37.621,18.883z"/>
			</g>
		</g>
		<g>
			<g>
				<circle fill="#B1B1B1" cx="33.755" cy="21.804" r="2.827"/>
			</g>
		</g>
		<g>
			<g>
				<circle fill="#FFFFFF" cx="34.866" cy="20.635" r="0.975"/>
			</g>
		</g>
	</g>
	<g>
		<g>
			<g>
				<path fill="#07171B" d="M26.797,32.035c1.616-1.698,3.939-2.959,3.959-2.982c0,0-1.796-0.813-5.513-0.813
					c-3.79,0-5.585,0.839-5.539,0.823c0.043,0.062,2.316,1.104,3.865,2.919c0.325,0.381,0.784,0.563,1.24,0.641h0.853
					C26.081,32.544,26.484,32.364,26.797,32.035z"/>
			</g>
		</g>
		<g>
			<g>
				<path fill="#07171B" d="M24.901,34.504c-0.698,1.204-1.58,1.886-2.622,2.028c-2.361,0.318-4.866-2.154-4.892-2.179
					c-0.134-0.136-0.351-0.136-0.484-0.001c-0.134,0.133-0.134,0.35-0.001,0.483c0.104,0.106,2.431,2.411,4.94,2.411
					c0.175,0,0.351-0.011,0.528-0.035c1.137-0.154,2.102-0.817,2.873-1.966c0.773,1.148,1.737,1.812,2.875,1.966
					c0.175,0.024,0.353,0.035,0.527,0.035c2.51,0,4.837-2.305,4.941-2.411c0.133-0.134,0.133-0.351-0.001-0.484
					c-0.135-0.132-0.351-0.133-0.484,0.002c-0.025,0.024-2.527,2.494-4.89,2.179c-1.046-0.145-1.924-0.82-2.624-2.028v-1.865
					c0.025-0.005,0.05-0.013,0.076-0.018h-0.853c0.03,0.006,0.061,0.016,0.092,0.02V34.504z"/>
			</g>
		</g>
	</g>
	<g>
		<g>
			<circle fill="none" cx="2.572" cy="43.068" r="2.006"/>
		</g>
	</g>
	<g>
		<g>
			<g>
				<g>
					<g>
						<path fill="#07171B" d="M0.343,34.693c-0.084,0-0.167-0.028-0.232-0.09c-0.139-0.128-0.148-0.345-0.021-0.484
							c6.77-7.385,17.279-3.251,17.384-3.208c0.175,0.071,0.26,0.271,0.188,0.446c-0.071,0.175-0.27,0.259-0.446,0.189
							c-0.1-0.041-10.175-3.995-16.622,3.035C0.527,34.657,0.435,34.693,0.343,34.693z"/>
					</g>
				</g>
			</g>
			<g>
				<g>
					<g>
						<path fill="#07171B" d="M2.571,36.849c-0.085,0-0.171-0.032-0.237-0.098c-0.137-0.131-0.14-0.349-0.009-0.484
							c6.342-6.536,14.611-4.337,14.694-4.313c0.183,0.052,0.289,0.24,0.239,0.422c-0.05,0.182-0.236,0.289-0.422,0.239
							c-0.079-0.022-7.968-2.108-14.019,4.131C2.75,36.814,2.662,36.849,2.571,36.849z"/>
					</g>
				</g>
			</g>
			<g>
				<g>
					<g>
						<path fill="#07171B" d="M5.421,39.248c-0.069,0-0.137-0.021-0.198-0.063c-0.155-0.107-0.191-0.321-0.084-0.476
							c4.394-6.242,11.749-5.635,11.819-5.628c0.189,0.018,0.328,0.184,0.311,0.372s-0.173,0.328-0.374,0.311
							c-0.068-0.006-7.036-0.572-11.194,5.339C5.633,39.197,5.528,39.248,5.421,39.248z"/>
					</g>
				</g>
			</g>
		</g>
		<g>
			<g>
				<g>
					<g>
						<path fill="#07171B" d="M49.657,34.693c-0.093,0-0.185-0.036-0.252-0.111c-6.446-7.03-16.521-3.076-16.622-3.035
							c-0.175,0.069-0.375-0.015-0.447-0.189c-0.07-0.176,0.014-0.375,0.19-0.446c0.105-0.043,10.613-4.177,17.383,3.208
							c0.128,0.14,0.119,0.356-0.021,0.484C49.823,34.665,49.741,34.693,49.657,34.693z"/>
					</g>
				</g>
			</g>
			<g>
				<g>
					<g>
						<path fill="#07171B" d="M47.428,36.849c-0.089,0-0.179-0.035-0.245-0.104c-6.062-6.248-13.94-4.154-14.019-4.131
							c-0.185,0.05-0.372-0.058-0.421-0.239c-0.051-0.182,0.056-0.37,0.238-0.422c0.083-0.023,8.352-2.223,14.694,4.313
							c0.131,0.136,0.127,0.354-0.008,0.484C47.6,36.817,47.514,36.849,47.428,36.849z"/>
					</g>
				</g>
			</g>
			<g>
				<g>
					<g>
						<path fill="#07171B" d="M44.58,39.248c-0.107,0-0.213-0.051-0.28-0.146c-4.161-5.912-11.127-5.346-11.195-5.339
							c-0.197,0.014-0.356-0.122-0.374-0.311c-0.017-0.188,0.122-0.354,0.311-0.372c0.071-0.007,7.425-0.615,11.819,5.628
							c0.108,0.154,0.071,0.368-0.083,0.476C44.717,39.227,44.647,39.248,44.58,39.248z"/>
					</g>
				</g>
			</g>
		</g>
	</g>
</g>
</svg>
