<?xml version="1.0" encoding="utf-8"?>
<!-- Generator: Adobe Illustrator 16.0.0, SVG Export Plug-In . SVG Version: 6.00 Build 0)  -->
<!DOCTYPE svg PUBLIC "-//W3C//DTD SVG 1.1//EN" "http://www.w3.org/Graphics/SVG/1.1/DTD/svg11.dtd">
<svg version="1.1" id="Capa_1" xmlns="http://www.w3.org/2000/svg" xmlns:xlink="http://www.w3.org/1999/xlink" x="0px" y="0px"
	 width="100px" height="100px" viewBox="206 206 100 100" enable-background="new 206 206 100 100" xml:space="preserve">
<rect x="206" y="206" fill="none" width="100" height="100"/>
<g>
	<g>
		<path fill="#FFFFFF" d="M252.8,255.118c1.598,0,2.897-1.744,2.897-3.888s-1.299-3.888-2.897-3.888
			c-1.597,0-2.896,1.744-2.896,3.888S251.203,255.118,252.8,255.118z"/>
		<path fill="#FFFFFF" d="M261.393,258.899c-0.06-0.08-0.117-0.157-0.147-0.223c-0.647-1.387-2.423-3.021-5.3-3.062l-0.11,0
			c-2.833,0-4.595,1.548-5.3,2.998c-0.024,0.049-0.078,0.113-0.135,0.182c-0.067,0.08-0.134,0.161-0.19,0.25
			c-0.596,0.927-0.899,1.97-0.854,2.938c0.047,1.027,0.477,1.853,1.209,2.323c0.295,0.189,0.615,0.285,0.949,0.285
			c0.69,0,1.322-0.389,2.055-0.839c0.466-0.287,0.947-0.583,1.481-0.805c0.06-0.02,0.305-0.05,0.707-0.05
			c0.477,0,0.819,0.042,0.893,0.067c0.521,0.23,0.979,0.532,1.423,0.824c0.679,0.447,1.32,0.869,2.016,0.869
			c0.299,0,0.589-0.078,0.861-0.233c1.507-0.855,1.793-3.204,0.64-5.233C261.531,259.088,261.462,258.993,261.393,258.899z"/>
		<path fill="#FFFFFF" d="M258.96,255.118c1.597,0,2.896-1.744,2.896-3.888s-1.3-3.888-2.896-3.888
			c-1.598,0-2.897,1.744-2.897,3.888S257.363,255.118,258.96,255.118z"/>
		<path fill="#FFFFFF" d="M263.717,253.121c-1.28,0-2.282,1.328-2.282,3.023c0,1.694,1.003,3.022,2.282,3.022
			c1.28,0,2.283-1.328,2.283-3.022C266,254.449,264.997,253.121,263.717,253.121z"/>
		<path fill="#FFFFFF" d="M250.565,256.144c0-1.695-1.002-3.023-2.282-3.023S246,254.449,246,256.144
			c0,1.694,1.003,3.022,2.283,3.022S250.565,257.839,250.565,256.144z"/>
	</g>
</g>
</svg>
