<?xml version="1.0" encoding="utf-8"?>
<!-- Generator: Adobe Illustrator 16.0.0, SVG Export Plug-In . SVG Version: 6.00 Build 0)  -->
<!DOCTYPE svg PUBLIC "-//W3C//DTD SVG 1.1//EN" "http://www.w3.org/Graphics/SVG/1.1/DTD/svg11.dtd">
<svg version="1.1" id="Layer_1" xmlns="http://www.w3.org/2000/svg" xmlns:xlink="http://www.w3.org/1999/xlink" x="0px" y="0px"
	 width="50px" height="55.515px" viewBox="0 0 50 55.515" enable-background="new 0 0 50 55.515" xml:space="preserve">
<g>
	<g>
		<g>
			<g>
				<path fill="#AF5B2B" d="M5.866,50.485c-0.688-0.617-1.24-1.385-1.603-2.25c-0.61,0.165-1.225,0.256-1.829,0.251
					c0.579-0.21,1.132-0.501,1.612-0.85c-0.107-0.353-0.187-0.719-0.231-1.096c-1.7,0.77-2.83,0.347-3.441-0.086
					c0.099,1.479,0.536,2.863,1.224,4.089c0.323,0.003,0.65-0.016,0.979-0.064c0.712-0.101,1.423-0.325,2.094-0.675
					c-0.535,0.534-1.176,0.99-1.891,1.329c-0.208,0.101-0.424,0.188-0.643,0.27c0.208,0.294,0.429,0.579,0.668,0.848
					c0.692-0.115,1.384-0.407,2.007-0.849C5.187,51.136,5.54,50.827,5.866,50.485z"/>
			</g>
		</g>
		<g>
			<g>
				<path fill="#AF5B2B" d="M19.757,45.808c0-0.946-0.767-1.714-1.714-1.714c-0.946,0-1.713,0.768-1.713,1.714
					c0,2.481-1.451,4.626-3.546,5.646c0.073,0.35,0.133,0.702,0.17,1.056c0.085,0.825,0.068,1.683-0.198,2.445
					c0.039-0.804-0.177-1.568-0.467-2.282c-0.121-0.294-0.266-0.576-0.417-0.855c-0.576,0.175-1.189,0.271-1.822,0.271
					c-0.807,0-1.577-0.152-2.285-0.43c-0.129,0.157-0.253,0.315-0.391,0.46c-0.449,0.472-0.943,0.881-1.463,1.226
					c0.363-0.508,0.661-1.048,0.892-1.604c0.064-0.154,0.11-0.313,0.163-0.472c-0.288-0.163-0.563-0.349-0.822-0.554
					c-0.251,0.419-0.539,0.823-0.874,1.198c-0.428,0.479-0.955,0.9-1.548,1.231c1.077,0.933,2.357,1.634,3.77,2.021
					c0.463-0.589,0.825-1.313,1.014-2.106c0.131,0.737,0.108,1.527-0.065,2.313c0.371,0.063,0.752,0.102,1.136,0.12
					c0.292-0.876,0.454-1.849,0.489-2.833c0.32,0.889,0.553,1.826,0.635,2.824C15.749,55.144,19.757,50.941,19.757,45.808z"/>
			</g>
		</g>
		<g>
			<g>
				<path fill="#4B190D" d="M3.816,46.541C3.788,46.3,3.77,46.055,3.77,45.808c0-0.72,0.121-1.427,0.36-2.101
					c0.315-0.893-0.15-1.872-1.042-2.188c-0.892-0.317-1.871,0.15-2.189,1.042c-0.368,1.043-0.557,2.134-0.557,3.246
					c0,0.219,0.019,0.431,0.033,0.646C0.986,46.887,2.117,47.31,3.816,46.541z"/>
			</g>
		</g>
		<g>
			<g>
				<path fill="#4B190D" d="M4.264,48.235c-0.083-0.195-0.154-0.395-0.216-0.599c-0.48,0.349-1.033,0.64-1.612,0.85
					C3.039,48.491,3.654,48.4,4.264,48.235z"/>
			</g>
		</g>
		<g>
			<g>
				<path fill="#4B190D" d="M4.671,49.804c-0.67,0.35-1.381,0.574-2.094,0.675c-0.329,0.049-0.656,0.067-0.979,0.064
					c0.166,0.296,0.344,0.583,0.539,0.859c0.219-0.082,0.436-0.169,0.643-0.27C3.496,50.794,4.137,50.338,4.671,49.804z"/>
			</g>
		</g>
		<g>
			<g>
				<path fill="#4B190D" d="M6.144,50.714c-0.094-0.075-0.188-0.149-0.278-0.229c-0.327,0.342-0.679,0.651-1.054,0.917
					c-0.623,0.441-1.314,0.733-2.007,0.849c0.283,0.32,0.593,0.613,0.917,0.894c0.593-0.331,1.12-0.752,1.548-1.231
					C5.605,51.538,5.893,51.133,6.144,50.714z"/>
			</g>
		</g>
		<g>
			<g>
				<path fill="#4B190D" d="M5.911,53.343c0.521-0.345,1.015-0.754,1.463-1.226c0.138-0.145,0.262-0.303,0.391-0.46
					c-0.277-0.109-0.542-0.243-0.799-0.39c-0.053,0.158-0.098,0.317-0.163,0.472C6.572,52.295,6.274,52.835,5.911,53.343z"/>
			</g>
		</g>
		<g>
			<g>
				<path fill="#4B190D" d="M8.505,53.058c-0.188,0.794-0.55,1.518-1.014,2.106c0.31,0.085,0.626,0.153,0.949,0.207
					C8.614,54.585,8.636,53.795,8.505,53.058z"/>
			</g>
		</g>
		<g>
			<g>
				<path fill="#4B190D" d="M9.577,55.492c0.158,0.008,0.315,0.023,0.474,0.023c0.219,0,0.433-0.02,0.65-0.032
					c-0.082-0.998-0.315-1.936-0.635-2.824C10.03,53.643,9.868,54.616,9.577,55.492z"/>
			</g>
		</g>
		<g>
			<g>
				<path fill="#4B190D" d="M12.756,54.955c0.266-0.763,0.283-1.62,0.198-2.445c-0.037-0.354-0.098-0.706-0.17-1.056
					c-0.292,0.142-0.596,0.266-0.911,0.363c0.15,0.279,0.295,0.562,0.417,0.855C12.58,53.386,12.795,54.151,12.756,54.955z"/>
			</g>
		</g>
	</g>
	<g>
		<g>
			<g>
				<g>
					<path fill="#EA8232" d="M34.736,50.933v-4.39c2.591-2.413,4.252-5.796,4.416-9.574c-2.843,4.258-7.99,7.115-13.892,7.129v6.186
						c0.852,0,1.681-0.087,2.491-0.233v0.883c-1.338,1.04-2.201,2.663-2.201,4.488h11.386
						C36.936,53.596,36.072,51.973,34.736,50.933z"/>
				</g>
			</g>
		</g>
		<g>
			<g>
				<path fill="#AF5B2B" d="M11.337,36.362c0,0.252,0.026,0.497,0.039,0.746c0.183,0.267,0.374,0.527,0.575,0.782
					c-0.201-0.255-0.393-0.516-0.575-0.782c0.2,3.722,1.85,7.053,4.409,9.436v4.39c-1.336,1.04-2.201,2.663-2.201,4.488h11.387
					c0-1.825-0.862-3.448-2.2-4.488V50.05c0.809,0.146,1.638,0.233,2.489,0.233v-6.186c-0.014,0-0.029,0.003-0.042,0.003
					c-4.721,0-8.961-1.824-11.932-4.729c1.172,1.144,2.542,2.12,4.06,2.883c-0.157-0.924-0.296-1.896-0.447-2.916
					c1.094,0.333,2.257,0.648,3.493,0.938c-0.001,0.004-0.003,0.006-0.004,0.009c0.931,0.464,1.899,0.988,2.904,1.578
					c0.643,0.377,1.295,0.771,1.969,1.205V37V22.438C17.57,22.438,11.337,28.673,11.337,36.362z M12.639,38.701
					c0.202,0.222,0.409,0.441,0.625,0.653C13.048,39.142,12.841,38.922,12.639,38.701z M12.03,37.985
					c0.179,0.223,0.36,0.441,0.552,0.655C12.39,38.426,12.208,38.208,12.03,37.985z"/>
			</g>
		</g>
		<g>
			<g>
				<g>
					<path fill="#AF5B2B" d="M25.26,22.438V37h0.001v6.069c0.674-0.434,1.326-0.828,1.971-1.205c1.004-0.59,1.971-1.114,2.903-1.578
						c1.261-0.295,2.446-0.617,3.559-0.958c-0.146,0.988-0.278,1.939-0.423,2.838c2.415-1.252,4.443-3.044,5.88-5.196
						c0.009-0.204,0.032-0.402,0.032-0.607C39.183,28.673,32.951,22.438,25.26,22.438z"/>
				</g>
			</g>
		</g>
		<g>
			<g>
				<path fill="#D5D2B1" d="M25.261,39.642l-0.001,0.685v-0.685c-0.674-0.434-7.268,0.03-8.362-0.303
					c0.151,1.02,0.291,1.992,0.447,2.916c0.798,4.739,2.061,8.028,7.915,8.028v-6.186c2.917-0.006,5.65-0.711,8.011-1.933
					c0.146-0.898,0.277-1.85,0.423-2.838C32.581,39.668,25.936,39.208,25.261,39.642z"/>
			</g>
		</g>
		<g>
			<g>
				<g>
					<path fill="#F6F3CF" d="M33.271,42.166c-2.361,1.222-5.094,1.927-8.011,1.933v6.186C31.287,50.284,32.488,46.954,33.271,42.166
						z"/>
				</g>
			</g>
		</g>
	</g>
	<g>
		<g>
			<g>
				<g>
					<g>
						<g>
							<circle fill="#AF5B2B" cx="12.511" cy="7.417" r="7.415"/>
						</g>
					</g>
				</g>
				<g>
					<g>
						<g>
							<circle fill="#4B190D" cx="12.511" cy="7.417" r="4.275"/>
						</g>
					</g>
				</g>
			</g>
			<g>
				<g>
					<g>
						<g>
							<circle fill="#EA8232" cx="37.62" cy="7.417" r="7.415"/>
						</g>
					</g>
				</g>
				<g>
					<g>
						<g>
							<circle fill="#4B190D" cx="37.62" cy="7.417" r="4.275"/>
						</g>
					</g>
				</g>
			</g>
		</g>
		<g>
			<g>
				<g>
					<g>
						<circle fill="#EA8232" cx="12.511" cy="7.417" r="7.415"/>
					</g>
				</g>
			</g>
			<g>
				<g>
					<g>
						<circle fill="#4B190D" cx="12.511" cy="7.417" r="4.275"/>
					</g>
				</g>
			</g>
		</g>
		<g>
			<g>
				<path fill="#AF5B2B" d="M6.963,22.2c-0.428,1.742-1.034,3.294-1.619,4.548c-0.134,0.032-0.267,0.067-0.396,0.109
					c-0.582,0.193-1.106,0.5-1.558,0.897c-0.446,0.406-0.839,0.892-1.054,1.556c0.656,0.04,1.191-0.02,1.7-0.105
					c-0.313,0.516-0.519,0.807-0.519,0.807c1.871-1.143,4.102-1.67,8.993-0.402c4.987,1.294,9.368,3.501,10.233,5.322
					c0.754-0.419,1.611-0.679,2.535-0.679v-9.497V3.333C11.376,3.333,6.963,12.367,6.963,22.2z"/>
			</g>
		</g>
		<g>
			<g>
				<g>
					<path fill="#D5D2B1" d="M25.26,40.327l0.027-10.717c-5.684-2.797-5.209,1.521-11.698-0.643
						c-4.794-1.598-9.182-0.341-10.496,1.6C3.093,30.567,13.589,41.823,25.26,40.327z"/>
				</g>
			</g>
		</g>
		<g>
			<g>
				<g>
					<path fill="none" d="M12.51,30.384c1.712,0.57,3.167,1.25,4.408,1.968c0.001-0.022,0.007-0.045,0.011-0.067
						C15.572,31.476,14.071,30.79,12.51,30.384z"/>
				</g>
			</g>
		</g>
		<g>
			<g>
				<g>
					<path fill="#E96332" d="M25.252,6.073v0.001c0.007,0,0.012-0.001,0.018-0.001C25.264,6.074,25.259,6.073,25.252,6.073z"/>
				</g>
			</g>
		</g>
		<g>
			<g>
				<g>
					<polygon fill="#07171B" points="22.743,37.661 22.743,37.661 22.75,37.673 					"/>
				</g>
			</g>
		</g>
		<g>
			<g>
				<g>
					<path fill="#A84720" d="M25.287,6.073c-0.005,0-0.011,0-0.017,0c0.006,0,0.012,0.001,0.017,0.001V6.073z"/>
				</g>
			</g>
		</g>
		<g>
			<g>
				<g>
					<path fill="#A84720" d="M25.287,21.625V6.075c-0.005,0-0.011-0.001-0.017-0.001c-0.005,0-0.011,0.001-0.018,0.001v15.553
						C25.264,21.627,25.275,21.625,25.287,21.625z"/>
				</g>
			</g>
		</g>
		<g>
			<g>
				<g>
					<path fill="#A84720" d="M25.252,36.997c0.007,0,0.012,0,0.018,0c0.006,0,0.012,0,0.017,0v-9.5v-5.872
						c-0.011,0-0.022,0.002-0.035,0.002v5.87V36.997z"/>
				</g>
			</g>
		</g>
		<g>
			<g>
				<path fill="#EA8232" d="M48.195,29.311c-0.216-0.664-0.608-1.15-1.055-1.556c-0.451-0.397-0.977-0.705-1.558-0.897
					c-0.128-0.042-0.261-0.078-0.396-0.109c-0.585-1.254-1.191-2.806-1.619-4.548c0-9.833-4.415-18.867-18.315-18.867v21.424v9.497
					c0.924,0,1.781,0.26,2.536,0.679c0.864-1.821,5.244-4.028,10.231-5.322c4.892-1.268,7.123-0.74,8.993,0.402
					c0,0-0.204-0.291-0.518-0.807C47.003,29.292,47.539,29.351,48.195,29.311z"/>
			</g>
		</g>
		<g>
			<g>
				<g>
					<path fill="#A84720" d="M25.252,36.997V37c0.007,0,0.012-0.002,0.018-0.003C25.264,36.997,25.259,36.997,25.252,36.997z"/>
				</g>
			</g>
		</g>
		<g>
			<g>
				<g>
					<path fill="#F6F3CF" d="M25.271,40.327L25.244,29.61c5.684-2.797,5.209,1.521,11.698-0.643c4.793-1.598,9.182-0.341,10.495,1.6
						C47.437,30.567,36.942,41.823,25.271,40.327z"/>
				</g>
			</g>
		</g>
		<g>
			<g>
				<g>
					<g>
						<path fill="#4B190D" d="M12.96,18.883c0,0,7.625-2.21,7.453,5.543C20.413,24.426,12.96,27.134,12.96,18.883z"/>
					</g>
				</g>
			</g>
			<g>
				<g>
					<g>
						<circle fill="#F39E2B" cx="16.775" cy="21.804" r="2.828"/>
					</g>
				</g>
			</g>
			<g>
				<g>
					<g>
						<circle fill="#FFFFFF" cx="17.72" cy="20.638" r="0.974"/>
					</g>
				</g>
			</g>
			<g>
				<g>
					<g>
						<path fill="#4B190D" d="M37.62,18.883c0,0-7.625-2.21-7.453,5.543C30.167,24.426,37.62,27.134,37.62,18.883z"/>
					</g>
				</g>
			</g>
			<g>
				<g>
					<g>
						<circle fill="#F39E2B" cx="33.755" cy="21.804" r="2.827"/>
					</g>
				</g>
			</g>
			<g>
				<g>
					<g>
						<circle fill="#FFFFFF" cx="34.866" cy="20.638" r="0.975"/>
					</g>
				</g>
			</g>
		</g>
		<g>
			<g>
				<g>
					<g>
						<g>
							<path fill="#D76C79" d="M24.809,32.281c-0.4-0.075-0.75-0.252-0.979-0.521c-1.077-1.26-2.477-2.152-3.295-2.622
								c0.812-0.232,2.365-0.557,4.709-0.557c2.322,0,3.886,0.327,4.701,0.56c-1.377,0.852-2.544,1.765-3.397,2.659
								c-0.232,0.243-0.54,0.405-0.917,0.481H24.809z"/>
						</g>
					</g>
				</g>
				<g>
					<g>
						<g>
							<path fill="#4B190D" d="M25.244,28.924c1.696,0,2.977,0.177,3.844,0.359c-1.11,0.739-2.059,1.515-2.788,2.279
								c-0.178,0.185-0.413,0.312-0.707,0.375h-0.723c-0.35-0.068-0.612-0.203-0.78-0.401c-0.837-0.981-1.86-1.742-2.672-2.264
								C22.281,29.094,23.548,28.924,25.244,28.924 M25.244,28.239c-3.759,0-5.554,0.825-5.542,0.825l0.001-0.001
								c0.043,0.063,2.317,1.104,3.865,2.919c0.325,0.381,0.785,0.562,1.24,0.641h0.854c0.419-0.078,0.822-0.259,1.134-0.587
								c1.617-1.698,3.938-2.96,3.959-2.982C30.756,29.053,28.96,28.239,25.244,28.239L25.244,28.239z"/>
						</g>
					</g>
				</g>
			</g>
			<g>
				<g>
					<g>
						<path fill="#4B190D" d="M24.901,34.504c-0.698,1.204-1.581,1.888-2.623,2.03c-2.36,0.317-4.867-2.156-4.893-2.18
							c-0.133-0.137-0.35-0.137-0.484-0.002c-0.133,0.134-0.133,0.351-0.001,0.484c0.104,0.105,2.432,2.411,4.941,2.411
							c0.177,0,0.351-0.011,0.528-0.034c1.137-0.157,2.102-0.818,2.875-1.968c0.771,1.149,1.736,1.811,2.875,1.968
							c0.175,0.023,0.353,0.034,0.527,0.034c2.509,0,4.834-2.306,4.941-2.411c0.134-0.134,0.133-0.351-0.001-0.484
							c-0.135-0.133-0.352-0.133-0.486,0.002c-0.025,0.023-2.526,2.494-4.888,2.18c-1.045-0.146-1.925-0.821-2.625-2.03V32.64
							c0.025-0.005,0.05-0.012,0.076-0.018h-0.854c0.03,0.006,0.062,0.016,0.092,0.02V34.504z"/>
					</g>
				</g>
			</g>
		</g>
		<g>
			<g>
				<g>
					<g>
						<polygon fill="#4B190D" points="6.892,22.478 12.51,25.712 6.143,24.844 						"/>
					</g>
				</g>
			</g>
			<g>
				<g>
					<g>
						<path fill="#4B190D" d="M7.472,16.756c0.354,0.617,0.712,1.151,1.147,1.733c0.872,1.159,1.909,2.229,3.14,3.122
							c-1.474-0.373-2.924-1.016-4.28-1.844l-0.4-0.251C7.148,18.043,7.472,16.756,7.472,16.756z"/>
					</g>
				</g>
			</g>
			<g>
				<g>
					<g>
						<path fill="#4B190D" d="M19.29,7.417c0.742-0.778,1.698-1.384,2.706-1.889c1.016-0.501,2.11-0.884,3.242-1.167v3.431
							c-0.921-0.288-1.899-0.5-2.895-0.585C21.349,7.128,20.314,7.139,19.29,7.417z"/>
					</g>
				</g>
			</g>
			<g>
				<g>
					<g>
						<path fill="#4B190D" d="M18.298,11.69c0.937-0.817,2.035-1.475,3.172-2.061c1.144-0.582,2.521-1.067,3.768-1.475l0.015,3.391
							c-1.145-0.175-2.179-0.258-3.366-0.254C20.699,11.301,19.492,11.385,18.298,11.69z"/>
					</g>
				</g>
			</g>
			<g>
				<g>
					<g>
						<path fill="#4B190D" d="M20.416,14.831c0.665-0.572,1.378-1.101,2.167-1.579c0.802-0.465,1.461-0.84,2.656-1.02v3.323
							c-0.455-0.338-1.466-0.532-2.269-0.635C22.15,14.82,21.285,14.791,20.416,14.831z"/>
					</g>
				</g>
			</g>
			<g>
				<g>
					<g>
						<path fill="#4B190D" d="M11.492,38.209c0.423,0.423,0.92,0.827,1.372,1.221c0.453,0.395,0.921,0.771,1.416,1.115
							c0.495,0.342,1.013,0.655,1.595,0.876c-0.621,0.063-1.27,0.014-1.903-0.077c-0.637-0.093-1.212-0.216-1.835-0.376
							C11.6,39.42,11.492,38.209,11.492,38.209z"/>
					</g>
				</g>
			</g>
			<g>
				<g>
					<g>
						<path fill="#4B190D" d="M12.662,42.255c0,0,0.424,0.261,0.909,0.582c0.969,0.64,1.987,1.222,3.118,1.639
							c-1.198,0.151-1.442,0.191-2.68,0.061C14.008,44.537,13.495,43.918,12.662,42.255z"/>
					</g>
				</g>
			</g>
		</g>
		<g>
			<g>
				<g>
					<g>
						<polygon fill="#4B190D" points="43.59,22.478 37.973,25.712 44.339,24.844 						"/>
					</g>
				</g>
			</g>
			<g>
				<g>
					<g>
						<path fill="#4B190D" d="M43.011,16.756c-0.355,0.617-0.713,1.151-1.148,1.733c-0.872,1.159-1.908,2.229-3.14,3.122
							c1.476-0.373,2.924-1.016,4.281-1.844l0.401-0.251C43.334,18.043,43.011,16.756,43.011,16.756z"/>
					</g>
				</g>
			</g>
			<g>
				<g>
					<g>
						<path fill="#4B190D" d="M31.193,7.417c-0.743-0.778-1.698-1.384-2.707-1.889c-1.016-0.501-2.11-0.884-3.241-1.167v3.431
							c0.92-0.288,1.897-0.5,2.894-0.585C29.134,7.128,30.169,7.139,31.193,7.417z"/>
					</g>
				</g>
			</g>
			<g>
				<g>
					<g>
						<path fill="#4B190D" d="M32.185,11.69c-0.937-0.817-2.035-1.475-3.172-2.061c-1.145-0.582-2.521-1.067-3.768-1.475
							l-0.016,3.391c1.145-0.175,2.18-0.258,3.367-0.254C29.784,11.301,30.991,11.385,32.185,11.69z"/>
					</g>
				</g>
			</g>
			<g>
				<g>
					<g>
						<path fill="#4B190D" d="M30.066,14.831c-0.665-0.572-1.379-1.101-2.165-1.579c-0.802-0.465-1.461-0.84-2.656-1.02v3.323
							c0.455-0.338,1.465-0.532,2.268-0.635C28.333,14.82,29.197,14.791,30.066,14.831z"/>
					</g>
				</g>
			</g>
			<g>
				<g>
					<g>
						<path fill="#4B190D" d="M38.99,38.209c-0.422,0.423-0.919,0.827-1.371,1.221c-0.454,0.395-0.921,0.771-1.416,1.115
							c-0.496,0.342-1.014,0.655-1.596,0.876c0.622,0.063,1.269,0.014,1.904-0.077c0.636-0.093,1.21-0.216,1.835-0.376
							C38.883,39.42,38.99,38.209,38.99,38.209z"/>
					</g>
				</g>
			</g>
			<g>
				<g>
					<g>
						<path fill="#4B190D" d="M37.821,42.255c0,0-0.423,0.261-0.908,0.582c-0.97,0.64-1.989,1.222-3.119,1.639
							c1.199,0.151,1.442,0.191,2.68,0.061C36.474,44.537,36.987,43.918,37.821,42.255z"/>
					</g>
				</g>
			</g>
		</g>
		<g>
			<g>
				<g>
					<g>
						<path fill="#8E6451" d="M0.342,34.694c-0.083,0-0.165-0.029-0.232-0.089c-0.139-0.129-0.148-0.346-0.02-0.485
							c6.77-7.384,17.279-3.252,17.384-3.208c0.175,0.07,0.26,0.27,0.189,0.446c-0.072,0.175-0.272,0.26-0.447,0.189
							c-0.101-0.041-10.176-3.995-16.621,3.035C0.527,34.657,0.435,34.694,0.342,34.694z"/>
					</g>
				</g>
			</g>
			<g>
				<g>
					<g>
						<path fill="#8E6451" d="M2.572,36.85c-0.087,0-0.173-0.032-0.239-0.097c-0.136-0.134-0.139-0.35-0.008-0.484
							c6.34-6.537,14.611-4.336,14.694-4.314c0.182,0.052,0.289,0.239,0.238,0.422c-0.051,0.183-0.237,0.29-0.423,0.239
							c-0.077-0.023-7.968-2.108-14.019,4.13C2.75,36.815,2.66,36.85,2.572,36.85z"/>
					</g>
				</g>
			</g>
			<g>
				<g>
					<g>
						<path fill="#8E6451" d="M5.419,39.249c-0.068,0-0.137-0.02-0.197-0.063c-0.154-0.107-0.191-0.322-0.083-0.476
							c4.393-6.243,11.748-5.633,11.819-5.628c0.188,0.017,0.327,0.184,0.31,0.372c-0.017,0.189-0.171,0.33-0.372,0.311
							c-0.07-0.007-7.037-0.572-11.196,5.339C5.634,39.198,5.528,39.249,5.419,39.249z"/>
					</g>
				</g>
			</g>
		</g>
		<g>
			<g>
				<g>
					<g>
						<path fill="#8E6451" d="M49.658,34.694c-0.092,0-0.186-0.037-0.252-0.111c-6.447-7.03-16.521-3.076-16.623-3.035
							c-0.176,0.068-0.375-0.015-0.447-0.189c-0.07-0.177,0.015-0.376,0.191-0.446c0.104-0.044,10.613-4.176,17.383,3.208
							c0.127,0.14,0.119,0.356-0.021,0.485C49.823,34.665,49.74,34.694,49.658,34.694z"/>
					</g>
				</g>
			</g>
			<g>
				<g>
					<g>
						<path fill="#8E6451" d="M47.428,36.85c-0.088,0-0.179-0.035-0.246-0.104c-6.061-6.246-13.939-4.153-14.018-4.13
							c-0.185,0.049-0.371-0.057-0.421-0.239c-0.051-0.182,0.056-0.37,0.239-0.422c0.081-0.021,8.352-2.225,14.693,4.314
							c0.132,0.135,0.128,0.351-0.008,0.484C47.6,36.818,47.514,36.85,47.428,36.85z"/>
					</g>
				</g>
			</g>
			<g>
				<g>
					<g>
						<path fill="#8E6451" d="M44.58,39.249c-0.107,0-0.214-0.051-0.281-0.146c-4.159-5.912-11.129-5.347-11.195-5.339
							c-0.197,0.016-0.355-0.121-0.372-0.311c-0.017-0.188,0.12-0.355,0.309-0.372c0.073-0.005,7.427-0.615,11.821,5.628
							c0.108,0.153,0.071,0.368-0.083,0.476C44.717,39.229,44.648,39.249,44.58,39.249z"/>
					</g>
				</g>
			</g>
		</g>
	</g>
</g>
</svg>
